<svg xmlns="http://www.w3.org/2000/svg" xmlns:xlink="http://www.w3.org/1999/xlink" width="40" zoomAndPan="magnify" viewBox="0 0 30 30.000001" height="40" preserveAspectRatio="xMidYMid meet" version="1.0"><defs><clipPath id="c816d4a2e9"><path d="M 5.636719 0 L 24.507812 0 L 24.507812 29.03125 L 5.636719 29.03125 Z M 5.636719 0 " clip-rule="nonzero"/></clipPath></defs><g clip-path="url(#c816d4a2e9)"><path fill="#504530" d="M 15.121094 0 C 9.9375 0 5.71875 4.1875 5.71875 9.328125 C 5.71875 18.140625 13.675781 28.085938 14.015625 28.507812 C 14.28125 28.835938 14.6875 29.03125 15.121094 29.03125 C 15.554688 29.03125 15.960938 28.835938 16.222656 28.507812 C 16.5625 28.085938 24.519531 18.140625 24.519531 9.328125 C 24.519531 4.1875 20.300781 0 15.121094 0 Z M 15.121094 14.527344 C 12.230469 14.527344 9.882812 12.195312 9.882812 9.328125 C 9.882812 6.460938 12.230469 4.128906 15.121094 4.128906 C 18.007812 4.128906 20.359375 6.460938 20.359375 9.328125 C 20.359375 12.195312 18.007812 14.527344 15.121094 14.527344 Z M 15.121094 14.527344 " fill-opacity="1" fill-rule="nonzero"/></g><path fill="#504530" d="M 15.121094 6.941406 C 13.789062 6.941406 12.710938 8.007812 12.710938 9.328125 C 12.710938 10.640625 13.789062 11.714844 15.121094 11.714844 C 16.449219 11.714844 17.527344 10.640625 17.527344 9.328125 C 17.527344 8.007812 16.449219 6.941406 15.121094 6.941406 Z M 15.121094 6.941406 " fill-opacity="1" fill-rule="nonzero"/></svg>