<svg xmlns="http://www.w3.org/2000/svg" xmlns:xlink="http://www.w3.org/1999/xlink" width="40" zoomAndPan="magnify" viewBox="0 0 30 30.000001" height="40" preserveAspectRatio="xMidYMid meet" version="1.0"><defs><clipPath id="70aa214f1b"><path d="M 0.484375 0.433594 L 28.789062 0.433594 L 28.789062 28.742188 L 0.484375 28.742188 Z M 0.484375 0.433594 " clip-rule="nonzero"/></clipPath></defs><g clip-path="url(#70aa214f1b)"><path fill="#504530" d="M 28.789062 14.589844 C 28.789062 15.515625 28.699219 16.4375 28.519531 17.347656 C 28.335938 18.261719 28.070312 19.144531 27.714844 20.003906 C 27.355469 20.863281 26.921875 21.679688 26.40625 22.453125 C 25.890625 23.222656 25.300781 23.9375 24.644531 24.597656 C 23.988281 25.253906 23.273438 25.839844 22.5 26.355469 C 21.726562 26.871094 20.910156 27.308594 20.054688 27.664062 C 19.195312 28.019531 18.308594 28.289062 17.398438 28.46875 C 16.488281 28.652344 15.566406 28.742188 14.636719 28.742188 C 13.707031 28.742188 12.789062 28.652344 11.875 28.46875 C 10.964844 28.289062 10.078125 28.019531 9.222656 27.664062 C 8.363281 27.308594 7.546875 26.871094 6.773438 26.355469 C 6 25.839844 5.285156 25.253906 4.628906 24.597656 C 3.972656 23.9375 3.386719 23.222656 2.867188 22.453125 C 2.351562 21.679688 1.917969 20.863281 1.5625 20.003906 C 1.207031 19.144531 0.9375 18.261719 0.753906 17.347656 C 0.574219 16.4375 0.484375 15.515625 0.484375 14.589844 C 0.484375 13.660156 0.574219 12.738281 0.753906 11.828125 C 0.9375 10.914062 1.207031 10.03125 1.5625 9.171875 C 1.917969 8.3125 2.351562 7.496094 2.867188 6.726562 C 3.386719 5.953125 3.972656 5.238281 4.628906 4.582031 C 5.285156 3.921875 6 3.335938 6.773438 2.820312 C 7.546875 2.304688 8.363281 1.867188 9.222656 1.511719 C 10.078125 1.15625 10.964844 0.886719 11.875 0.707031 C 12.789062 0.527344 13.707031 0.433594 14.636719 0.433594 C 15.566406 0.433594 16.488281 0.527344 17.398438 0.707031 C 18.308594 0.886719 19.195312 1.15625 20.054688 1.511719 C 20.910156 1.867188 21.726562 2.304688 22.5 2.820312 C 23.273438 3.335938 23.988281 3.921875 24.644531 4.582031 C 25.300781 5.238281 25.890625 5.953125 26.40625 6.726562 C 26.921875 7.496094 27.355469 8.3125 27.714844 9.171875 C 28.070312 10.03125 28.335938 10.914062 28.519531 11.828125 C 28.699219 12.738281 28.789062 13.660156 28.789062 14.589844 Z M 28.789062 14.589844 " fill-opacity="1" fill-rule="nonzero"/></g><path fill="#ffffff" d="M 8.085938 7.285156 C 6.398438 9.132812 6.199219 13.167969 11.125 18.097656 C 11.125 18.097656 11.125 18.101562 11.128906 18.101562 C 11.128906 18.101562 11.128906 18.105469 11.132812 18.105469 C 16.0625 23.03125 20.09375 22.824219 21.941406 21.140625 C 22.640625 20.5 22.941406 19.816406 23.058594 19.265625 C 23.191406 18.644531 22.855469 18.023438 22.277344 17.769531 L 19.253906 16.4375 C 19.007812 16.328125 18.714844 16.390625 18.539062 16.59375 C 18.183594 17 17.570312 17.691406 17.058594 18.234375 C 16.253906 18.289062 14.203125 16.992188 13.21875 16.007812 C 12.230469 15.019531 10.9375 12.972656 10.988281 12.164062 C 11.535156 11.652344 12.222656 11.042969 12.628906 10.683594 C 12.832031 10.507812 12.898438 10.21875 12.789062 9.96875 L 11.453125 6.945312 C 11.199219 6.367188 10.578125 6.03125 9.960938 6.164062 C 9.40625 6.285156 8.722656 6.585938 8.085938 7.285156 Z M 8.085938 7.285156 " fill-opacity="1" fill-rule="nonzero"/></svg>