<svg xmlns="http://www.w3.org/2000/svg" xmlns:xlink="http://www.w3.org/1999/xlink" width="40" zoomAndPan="magnify" viewBox="0 0 30 30.000001" height="40" preserveAspectRatio="xMidYMid meet" version="1.0"><defs><clipPath id="036ccae7af"><path d="M 0.847656 0.363281 L 29.152344 0.363281 L 29.152344 28.667969 L 0.847656 28.667969 Z M 0.847656 0.363281 " clip-rule="nonzero"/></clipPath></defs><g clip-path="url(#036ccae7af)"><path fill="#504530" d="M 15 28.667969 C 22.816406 28.667969 29.152344 22.332031 29.152344 14.515625 C 29.152344 6.699219 22.816406 0.363281 15 0.363281 C 7.183594 0.363281 0.847656 6.699219 0.847656 14.515625 C 0.847656 22.332031 7.183594 28.667969 15 28.667969 Z M 8.570312 8.496094 L 15 13.636719 L 21.429688 8.496094 L 21.613281 8.339844 L 8.386719 8.339844 Z M 22.300781 9.554688 L 22.546875 9.347656 L 22.546875 20.007812 C 22.546875 20.386719 22.242188 20.691406 21.863281 20.691406 L 8.136719 20.691406 C 7.757812 20.691406 7.453125 20.386719 7.453125 20.007812 L 7.453125 9.347656 L 7.699219 9.554688 L 7.710938 9.5625 L 14.570312 15.050781 C 14.820312 15.253906 15.179688 15.253906 15.429688 15.050781 L 22.289062 9.5625 Z M 22.300781 9.554688 " fill-opacity="1" fill-rule="evenodd"/></g></svg>