<svg width="400px" height="47px" viewBox="0 0 400 47" version="1.1" xmlns="http://www.w3.org/2000/svg" xmlns:xlink="http://www.w3.org/1999/xlink">
    <!-- Generator: Sketch 39.1 (31720) - http://www.bohemiancoding.com/sketch -->
    <title>EnergieeffizienzExperten</title>
    <desc>Created with Sketch.</desc>
    <defs></defs>
    <g id="Page-1" stroke="none" stroke-width="1" fill="none" fill-rule="evenodd">
        <g id="2017-01-24_EE_Logo_CMYK_300dpi" fill="#00A2D4">
            <g id="Group">
                <path d="M65.5271347,21.9749526 L65.5271347,19.4223909 C65.5271347,18.9176471 65.2129032,18.8538899 64.9601518,18.8538899 L57.0185958,18.8538899 C56.8925996,18.8538899 56.7036053,18.7590133 56.7036053,18.4759013 L56.7036053,13.8755218 C56.7036053,13.5597723 56.8925996,13.4967742 57.0185958,13.4967742 L62.7233397,13.4967742 C62.9745731,13.4967742 63.2895636,13.4337761 63.2895636,12.9297913 L63.2895636,10.3779886 C63.2895636,9.87248577 62.9745731,9.81024668 62.7233397,9.81024668 L57.0185958,9.81024668 C56.8925996,9.81024668 56.7036053,9.71537002 56.7036053,9.43074004 L56.7036053,5.58709677 C56.7036053,5.27210626 56.8925996,5.20834915 57.0185958,5.20834915 L64.3301708,5.20834915 C64.5829222,5.20834915 64.8971537,5.14611006 64.8971537,4.64212524 L64.8971537,2.09032258 C64.8971537,1.58481973 64.5829222,1.52182163 64.3301708,1.52182163 L52.229222,1.52182163 C51.9772296,1.52182163 51.6614801,1.58481973 51.6614801,2.09032258 L51.6614801,21.9749526 C51.6614801,22.4789374 51.9772296,22.5419355 52.229222,22.5419355 L64.9601518,22.5419355 C65.2129032,22.5419355 65.5271347,22.4789374 65.5271347,21.9749526 L65.5271347,21.9749526 Z M83.0421252,21.9749526 L83.0421252,12.9297913 C83.0421252,10.3468691 82.8857685,8.95939279 81.8459203,7.82390892 C80.8356736,6.72106262 79.2296015,6.24895636 77.4330171,6.24895636 C76.456167,6.24895636 75.1954459,6.50018975 74.2823529,6.87893738 C73.999241,7.00493359 73.5256167,7.16356736 73.1476281,7.16356736 C72.8318786,7.16356736 72.800759,7.06793169 72.800759,6.94193548 C72.800759,6.72106262 72.7370019,6.53206831 72.3597723,6.53206831 L68.798482,6.53206831 C68.5457306,6.53206831 68.2322581,6.59506641 68.2322581,7.09981025 L68.2322581,21.9749526 C68.2322581,22.4789374 68.5457306,22.5419355 68.798482,22.5419355 L72.3908918,22.5419355 C72.6428843,22.5419355 72.9586338,22.4789374 72.9586338,21.9749526 L72.9586338,11.543074 C72.9586338,10.7537002 73.2728653,10.3149905 73.9028463,10.0303605 C74.3772296,9.81024668 75.0375712,9.71537002 75.5734345,9.71537002 C76.5829222,9.71537002 77.3070209,9.99924099 77.7798861,10.5981025 C78.1897533,11.1332068 78.3157495,11.9210626 78.3157495,13.1825427 L78.3157495,21.9749526 C78.3157495,22.4789374 78.63074,22.5419355 78.8834915,22.5419355 L82.4759013,22.5419355 C82.7278937,22.5419355 83.0421252,22.4789374 83.0421252,21.9749526 L83.0421252,21.9749526 Z M101.332827,14.8834915 L101.332827,14.1267552 C101.332827,10.8182163 100.388615,6.2170778 93.6432638,6.2170778 C89.1370019,6.2170778 85.7017078,8.67628083 85.7017078,14.6944972 C85.7017078,21.0611006 90.0500949,22.8250474 94.6519924,22.8250474 C96.9836812,22.8250474 99.2220114,22.4478178 100.008349,21.8489564 C100.324099,21.6280835 100.355218,21.4368121 100.355218,21.029222 L100.355218,19.0436433 C100.355218,18.7908918 100.261101,18.5388994 99.9142315,18.5388994 C99.6948767,18.5388994 99.6303605,18.6034156 99.4413662,18.6967742 C98.8425047,19.0110057 97.3305503,19.6743833 95.2508539,19.6743833 C92.4781784,19.6743833 90.6497154,18.570778 90.6497154,15.8922201 C90.6497154,15.5779886 90.8379507,15.4497154 91.1218216,15.4497154 L100.765844,15.4497154 C101.017837,15.4497154 101.332827,15.3867173 101.332827,14.8834915 L101.332827,14.8834915 Z M96.6056926,12.1419355 C96.6056926,12.4872865 96.5426945,12.5510436 96.227704,12.5510436 L90.9328273,12.5510436 C90.6185958,12.5510436 90.5555977,12.4242884 90.5555977,12.2368121 C90.5555977,10.3779886 91.657685,9.14686907 93.5172676,9.14686907 C94.8728653,9.14686907 96.6056926,9.71537002 96.6056926,12.1419355 L96.6056926,12.1419355 Z M114.612524,9.93548387 L114.612524,7.32144213 C114.612524,6.78481973 114.423529,6.28083491 113.037571,6.28083491 C110.673245,6.28083491 109.979507,7.47703985 109.066414,7.47703985 C108.877419,7.47703985 108.719545,7.35256167 108.719545,7.19468691 L108.719545,6.94193548 C108.719545,6.72106262 108.655787,6.53206831 108.278558,6.53206831 L104.781025,6.53206831 C104.528273,6.53206831 104.212524,6.59506641 104.212524,7.09981025 L104.212524,21.9749526 C104.212524,22.4789374 104.528273,22.5419355 104.781025,22.5419355 L108.373435,22.5419355 C108.625427,22.5419355 108.941176,22.4789374 108.941176,21.9749526 L108.941176,12.6474383 C108.941176,11.4800759 109.255408,10.1571157 111.776091,10.1571157 C113.446679,10.1571157 113.698672,10.4083491 114.171537,10.4083491 C114.487287,10.4083491 114.612524,10.2185958 114.612524,9.93548387 L114.612524,9.93548387 Z M131.916509,21.5969639 L131.916509,7.09981025 C131.916509,6.53206831 131.5074,6.53206831 131.349526,6.53206831 L127.850474,6.53206831 C127.442125,6.53206831 127.409488,6.72106262 127.409488,6.94193548 C127.409488,7.06793169 127.409488,7.16356736 127.095256,7.16356736 C126.370398,7.16356736 125.582543,6.28083491 123.313093,6.28083491 C118.774953,6.28083491 115.749526,9.08614801 115.749526,14.6003795 C115.749526,19.5795066 118.397723,22.5419355 123.029222,22.5419355 C125.33055,22.5419355 126.496395,21.5643264 126.906262,21.5643264 C127.095256,21.5643264 127.190133,21.7222011 127.190133,21.9749526 L127.190133,22.4478178 C127.190133,23.4557875 127.032258,24.400759 126.024288,25.0626186 C125.046679,25.6933586 123.597723,25.8497154 122.430361,25.8497154 C119.657685,25.8497154 118.082732,25.0314991 117.388994,24.6535104 C117.2,24.5578748 117.105882,24.4956357 116.88425,24.4956357 C116.601139,24.4956357 116.474383,24.7142315 116.474383,25.0003795 L116.474383,27.1111954 C116.474383,27.4899431 116.474383,27.6796964 116.790133,27.8990512 C117.514991,28.4349146 120.509298,29.0975332 122.935104,29.0975332 C126.68463,29.0975332 129.899051,28.1829222 131.22277,25.6303605 C131.758634,24.5905123 131.916509,23.2356736 131.916509,21.5969639 L131.916509,21.5969639 Z M127.190133,17.1855787 C127.190133,18.3514231 126.779507,18.6337761 126.087287,18.9480076 C125.6463,19.1377609 125.141556,19.200759 124.636812,19.200759 C121.76926,19.200759 120.698292,17.4679317 120.698292,14.5373814 C120.698292,9.96736243 123.218216,9.5886148 124.636812,9.5886148 C125.141556,9.5886148 125.6463,9.65237192 126.087287,9.84060721 C126.779507,10.1252372 127.190133,10.4409867 127.190133,11.2903226 L127.190133,17.1855787 L127.190133,17.1855787 Z M140.41518,2.34231499 C140.41518,0.985958254 139.470209,0.229981025 137.76926,0.229981025 C136.098672,0.229981025 135.121822,0.985958254 135.121822,2.30891841 C135.121822,3.66527514 136.066034,4.42125237 137.76926,4.42125237 C139.43833,4.42125237 140.41518,3.66527514 140.41518,2.34231499 L140.41518,2.34231499 Z M140.132068,21.9749526 L140.132068,7.1316888 C140.132068,6.62694497 139.817078,6.53206831 139.565085,6.53206831 L135.971917,6.53206831 C135.720683,6.53206831 135.405693,6.59506641 135.405693,7.09981025 L135.405693,21.9749526 C135.405693,22.4789374 135.720683,22.5419355 135.971917,22.5419355 L139.565085,22.5419355 C139.817078,22.5419355 140.132068,22.4789374 140.132068,21.9749526 L140.132068,21.9749526 Z M158.445541,14.8834915 L158.445541,14.1267552 C158.445541,10.8182163 157.499051,6.2170778 150.755218,6.2170778 C146.248956,6.2170778 142.814421,8.67628083 142.814421,14.6944972 C142.814421,21.0611006 147.163567,22.8250474 151.763188,22.8250474 C154.096395,22.8250474 156.333966,22.4478178 157.121822,21.8489564 C157.436053,21.6280835 157.468691,21.4368121 157.468691,21.029222 L157.468691,19.0436433 C157.468691,18.7908918 157.373814,18.5388994 157.027704,18.5388994 C156.805313,18.5388994 156.742315,18.6034156 156.553321,18.6967742 C155.955977,19.0110057 154.443264,19.6743833 152.362049,19.6743833 C149.589374,19.6743833 147.760911,18.570778 147.760911,15.8922201 C147.760911,15.5779886 147.951423,15.4497154 148.234535,15.4497154 L157.87704,15.4497154 C158.129032,15.4497154 158.445541,15.3867173 158.445541,14.8834915 L158.445541,14.8834915 Z M153.717647,12.1419355 C153.717647,12.4872865 153.654649,12.5510436 153.339658,12.5510436 L148.045541,12.5510436 C147.73055,12.5510436 147.666793,12.4242884 147.666793,12.2368121 C147.666793,10.3779886 148.770398,9.14686907 150.629222,9.14686907 C151.98482,9.14686907 153.717647,9.71537002 153.717647,12.1419355 L153.717647,12.1419355 Z M175.931689,14.8834915 L175.931689,14.1267552 C175.931689,10.8182163 174.985958,6.2170778 168.242125,6.2170778 C163.735863,6.2170778 160.300569,8.67628083 160.300569,14.6944972 C160.300569,21.0611006 164.649715,22.8250474 169.250854,22.8250474 C171.583302,22.8250474 173.820114,22.4478178 174.60797,21.8489564 C174.923719,21.6280835 174.954839,21.4368121 174.954839,21.029222 L174.954839,19.0436433 C174.954839,18.7908918 174.860721,18.5388994 174.513852,18.5388994 C174.293738,18.5388994 174.23074,18.6034156 174.041746,18.6967742 C173.442884,19.0110057 171.929412,19.6743833 169.849715,19.6743833 C167.075522,19.6743833 165.249336,18.570778 165.249336,15.8922201 C165.249336,15.5779886 165.43833,15.4497154 165.721442,15.4497154 L175.365465,15.4497154 C175.615939,15.4497154 175.931689,15.3867173 175.931689,14.8834915 L175.931689,14.8834915 Z M171.205313,12.1419355 C171.205313,12.4872865 171.141556,12.5510436 170.827324,12.5510436 L165.532448,12.5510436 C165.216698,12.5510436 165.154459,12.4242884 165.154459,12.2368121 C165.154459,10.3779886 166.257306,9.14686907 168.116129,9.14686907 C169.470968,9.14686907 171.205313,9.71537002 171.205313,12.1419355 L171.205313,12.1419355 Z M187.324478,9.11650854 L187.324478,7.09981025 C187.324478,6.59506641 187.009488,6.53206831 186.756736,6.53206831 L184.456926,6.53206831 C184.329412,6.53206831 184.173055,6.43870968 184.173055,6.1540797 L184.173055,5.74421252 C184.173055,5.30398482 184.204175,4.42125237 184.267173,4.20113852 C184.456926,3.50740038 184.865275,3.2857685 185.591651,3.2857685 C186.283112,3.2857685 186.535863,3.60151803 186.914611,3.60151803 C187.134725,3.60151803 187.324478,3.47476281 187.324478,3.09677419 L187.324478,1.17495256 C187.324478,0.418975332 185.811765,0.0417457306 184.141176,0.0417457306 C182.816698,0.0417457306 180.643643,0.355218216 179.760911,2.68842505 C179.540797,3.25464896 179.445161,3.88462998 179.445161,5.36622391 L179.445161,6.1540797 C179.445161,6.43870968 179.288046,6.53206831 179.162049,6.53206831 L177.806452,6.53206831 C177.554459,6.53206831 177.239469,6.59506641 177.239469,7.09981025 L177.239469,9.11650854 C177.239469,9.62125237 177.554459,9.68273245 177.806452,9.68273245 L179.162049,9.68273245 C179.288046,9.68273245 179.445161,9.77760911 179.445161,10.0607211 L179.445161,21.9749526 C179.445161,22.4789374 179.760911,22.5419355 180.012903,22.5419355 L183.605313,22.5419355 C183.856546,22.5419355 184.173055,22.4789374 184.173055,21.9749526 L184.173055,10.0607211 C184.173055,9.77760911 184.329412,9.68273245 184.456926,9.68273245 L186.756736,9.68273245 C187.009488,9.68273245 187.324478,9.62125237 187.324478,9.11650854 L187.324478,9.11650854 Z M198.69222,9.11650854 L198.69222,7.09981025 C198.69222,6.59506641 198.375712,6.53206831 198.12296,6.53206831 L195.822391,6.53206831 C195.697154,6.53206831 195.539279,6.43870968 195.539279,6.1540797 L195.539279,5.74421252 C195.539279,5.30398482 195.571917,4.42125237 195.634156,4.20113852 C195.822391,3.50740038 196.233017,3.2857685 196.957116,3.2857685 C197.650854,3.2857685 197.903605,3.60151803 198.280835,3.60151803 C198.502467,3.60151803 198.69222,3.47476281 198.69222,3.09677419 L198.69222,1.17495256 C198.69222,0.418975332 197.179507,0.0417457306 195.508918,0.0417457306 C194.18444,0.0417457306 192.011385,0.355218216 191.127894,2.68842505 C190.907021,3.25464896 190.812144,3.88462998 190.812144,5.36622391 L190.812144,6.1540797 C190.812144,6.43870968 190.655028,6.53206831 190.529032,6.53206831 L189.174194,6.53206831 C188.921442,6.53206831 188.605693,6.59506641 188.605693,7.09981025 L188.605693,9.11650854 C188.605693,9.62125237 188.921442,9.68273245 189.174194,9.68273245 L190.529032,9.68273245 C190.655028,9.68273245 190.812144,9.77760911 190.812144,10.0607211 L190.812144,21.9749526 C190.812144,22.4789374 191.127894,22.5419355 191.379127,22.5419355 L194.973055,22.5419355 C195.224288,22.5419355 195.539279,22.4789374 195.539279,21.9749526 L195.539279,10.0607211 C195.539279,9.77760911 195.697154,9.68273245 195.822391,9.68273245 L198.12296,9.68273245 C198.375712,9.68273245 198.69222,9.62125237 198.69222,9.11650854 L198.69222,9.11650854 Z M205.93852,2.34231499 C205.93852,0.985958254 204.993548,0.229981025 203.291841,0.229981025 C201.622011,0.229981025 200.645161,0.985958254 200.645161,2.30891841 C200.645161,3.66527514 201.589374,4.42125237 203.291841,4.42125237 C204.962429,4.42125237 205.93852,3.66527514 205.93852,2.34231499 L205.93852,2.34231499 Z M205.655408,21.9749526 L205.655408,7.1316888 C205.655408,6.62694497 205.341176,6.53206831 205.088425,6.53206831 L201.496015,6.53206831 C201.243264,6.53206831 200.928273,6.59506641 200.928273,7.09981025 L200.928273,21.9749526 C200.928273,22.4789374 201.243264,22.5419355 201.496015,22.5419355 L205.088425,22.5419355 C205.341176,22.5419355 205.655408,22.4789374 205.655408,21.9749526 L205.655408,21.9749526 Z M221.403416,21.9749526 L221.403416,19.9256167 C221.403416,19.4223909 221.086907,19.3586338 220.834156,19.3586338 L214.343074,19.3586338 C214.059962,19.3586338 213.933966,19.3267552 213.933966,19.1377609 C213.933966,18.9806452 213.995446,18.9176471 214.090323,18.7908918 L220.772676,9.87248577 C221.055787,9.49373814 221.120304,9.24174573 221.120304,8.77039848 L221.120304,7.09981025 C221.120304,6.59506641 220.803795,6.53206831 220.551044,6.53206831 L209.080076,6.53206831 C208.828843,6.53206831 208.513852,6.59506641 208.513852,7.09981025 L208.513852,9.11650854 C208.513852,9.62125237 208.828843,9.68273245 209.080076,9.68273245 L214.784061,9.68273245 C215.067173,9.68273245 215.194687,9.71537002 215.194687,9.90512334 C215.194687,10.0607211 215.130171,10.1252372 215.036812,10.2519924 L208.544213,18.9176471 C208.261101,19.2948767 208.198102,19.6106262 208.198102,20.0212524 L208.198102,21.9749526 C208.198102,22.4789374 208.513852,22.5419355 208.765844,22.5419355 L220.834156,22.5419355 C221.086907,22.5419355 221.403416,22.4789374 221.403416,21.9749526 L221.403416,21.9749526 Z M229.044402,2.34231499 C229.044402,0.985958254 228.099431,0.229981025 226.396964,0.229981025 C224.727894,0.229981025 223.749526,0.985958254 223.749526,2.30891841 C223.749526,3.66527514 224.696015,4.42125237 226.396964,4.42125237 C228.066034,4.42125237 229.044402,3.66527514 229.044402,2.34231499 L229.044402,2.34231499 Z M228.759772,21.9749526 L228.759772,7.1316888 C228.759772,6.62694497 228.445541,6.53206831 228.193548,6.53206831 L224.60038,6.53206831 C224.348387,6.53206831 224.034156,6.59506641 224.034156,7.09981025 L224.034156,21.9749526 C224.034156,22.4789374 224.348387,22.5419355 224.60038,22.5419355 L228.193548,22.5419355 C228.445541,22.5419355 228.759772,22.4789374 228.759772,21.9749526 L228.759772,21.9749526 Z M247.074004,14.8834915 L247.074004,14.1267552 C247.074004,10.8182163 246.127514,6.2170778 239.382922,6.2170778 C234.877419,6.2170778 231.442884,8.67628083 231.442884,14.6944972 C231.442884,21.0611006 235.79203,22.8250474 240.391651,22.8250474 C242.724099,22.8250474 244.962429,22.4478178 245.749526,21.8489564 C246.063757,21.6280835 246.097154,21.4368121 246.097154,21.029222 L246.097154,19.0436433 C246.097154,18.7908918 246.002277,18.5388994 245.656167,18.5388994 C245.434535,18.5388994 245.371537,18.6034156 245.181784,18.6967742 C244.58444,19.0110057 243.071727,19.6743833 240.990512,19.6743833 C238.218596,19.6743833 236.390133,18.570778 236.390133,15.8922201 C236.390133,15.5779886 236.579127,15.4497154 236.863757,15.4497154 L246.504744,15.4497154 C246.758254,15.4497154 247.074004,15.3867173 247.074004,14.8834915 L247.074004,14.8834915 Z M242.345351,12.1419355 C242.345351,12.4872865 242.283112,12.5510436 241.967362,12.5510436 L236.674004,12.5510436 C236.358254,12.5510436 236.295256,12.4242884 236.295256,12.2368121 C236.295256,10.3779886 237.39962,9.14686907 239.258444,9.14686907 C240.612524,9.14686907 242.345351,9.71537002 242.345351,12.1419355 L242.345351,12.1419355 Z M264.764326,21.9749526 L264.764326,12.9297913 C264.764326,10.3468691 264.60797,8.95939279 263.568121,7.82390892 C262.558634,6.72106262 260.951044,6.24895636 259.155218,6.24895636 C258.178368,6.24895636 256.918406,6.50018975 256.005313,6.87893738 C255.720683,7.00493359 255.248577,7.16356736 254.870588,7.16356736 C254.554839,7.16356736 254.52296,7.06793169 254.52296,6.94193548 C254.52296,6.72106262 254.459962,6.53206831 254.081973,6.53206831 L250.520683,6.53206831 C250.268691,6.53206831 249.9537,6.59506641 249.9537,7.09981025 L249.9537,21.9749526 C249.9537,22.4789374 250.268691,22.5419355 250.520683,22.5419355 L254.112334,22.5419355 C254.365085,22.5419355 254.680835,22.4789374 254.680835,21.9749526 L254.680835,11.543074 C254.680835,10.7537002 254.995825,10.3149905 255.625806,10.0303605 C256.098672,9.81024668 256.760531,9.71537002 257.296395,9.71537002 C258.305123,9.71537002 259.029981,9.99924099 259.502846,10.5981025 C259.912713,11.1332068 260.037192,11.9210626 260.037192,13.1825427 L260.037192,21.9749526 C260.037192,22.4789374 260.352941,22.5419355 260.604934,22.5419355 L264.198861,22.5419355 C264.450095,22.5419355 264.764326,22.4789374 264.764326,21.9749526 L264.764326,21.9749526 Z M280.380266,21.9749526 L280.380266,19.9256167 C280.380266,19.4223909 280.064516,19.3586338 279.811765,19.3586338 L273.320683,19.3586338 C273.036812,19.3586338 272.911575,19.3267552 272.911575,19.1377609 C272.911575,18.9806452 272.973055,18.9176471 273.067932,18.7908918 L279.750285,9.87248577 C280.033397,9.49373814 280.094877,9.24174573 280.094877,8.77039848 L280.094877,7.09981025 C280.094877,6.59506641 279.781404,6.53206831 279.528653,6.53206831 L268.057685,6.53206831 C267.804934,6.53206831 267.491461,6.59506641 267.491461,7.09981025 L267.491461,9.11650854 C267.491461,9.62125237 267.804934,9.68273245 268.057685,9.68273245 L273.76167,9.68273245 C274.044782,9.68273245 274.172296,9.71537002 274.172296,9.90512334 C274.172296,10.0607211 274.10778,10.1252372 274.014421,10.2519924 L267.521822,18.9176471 C267.23871,19.2948767 267.175712,19.6106262 267.175712,20.0212524 L267.175712,21.9749526 C267.175712,22.4789374 267.491461,22.5419355 267.741935,22.5419355 L279.811765,22.5419355 C280.064516,22.5419355 280.380266,22.4789374 280.380266,21.9749526 L280.380266,21.9749526 Z M295.752562,21.9749526 L295.752562,20.8409867 C295.752562,20.3354839 295.436812,20.2717268 295.184061,20.2717268 L286.866034,20.2717268 C286.739279,20.2717268 286.549526,20.1783681 286.549526,19.8937381 L286.549526,12.8979127 C286.549526,12.5844402 286.739279,12.5214421 286.866034,12.5214421 L292.947249,12.5214421 C293.199241,12.5214421 293.513472,12.456167 293.513472,11.9529412 L293.513472,10.8182163 C293.513472,10.3149905 293.199241,10.2519924 292.947249,10.2519924 L286.866034,10.2519924 C286.739279,10.2519924 286.549526,10.1571157 286.549526,9.87248577 L286.549526,4.16925996 C286.549526,3.85351044 286.739279,3.79051233 286.866034,3.79051233 L294.554839,3.79051233 C294.806072,3.79051233 295.121063,3.72675522 295.121063,3.22352941 L295.121063,2.09032258 C295.121063,1.58481973 294.806072,1.52182163 294.554839,1.52182163 L284.060721,1.52182163 C283.80797,1.52182163 283.492979,1.58481973 283.492979,2.09032258 L283.492979,21.9749526 C283.492979,22.4789374 283.80797,22.5419355 284.060721,22.5419355 L295.184061,22.5419355 C295.436812,22.5419355 295.752562,22.4789374 295.752562,21.9749526 L295.752562,21.9749526 Z M311.026186,22.1009488 C311.026186,21.8785579 310.931309,21.7844402 310.806072,21.5969639 L305.921063,14.4743833 C305.826186,14.3157495 305.764706,14.1897533 305.764706,14.0652751 C305.764706,13.9392789 305.795066,13.8444023 305.889184,13.7191651 L309.954459,7.69943074 C310.081214,7.50967742 310.174573,7.38368121 310.174573,7.16356736 C310.174573,6.91005693 310.017457,6.75294118 309.63871,6.75294118 L308.125996,6.75294118 C307.685009,6.75294118 307.590133,6.97381404 307.496774,7.1316888 L304.660342,11.7328273 C304.565465,11.888425 304.472106,12.0159393 304.345351,12.0159393 C304.187476,12.0159393 304.124478,11.8588235 303.999241,11.7009488 L300.878937,7.1316888 C300.752941,6.97381404 300.658065,6.75294118 300.217078,6.75294118 L298.168501,6.75294118 C297.791271,6.75294118 297.632638,6.91005693 297.632638,7.16356736 C297.632638,7.38368121 297.726755,7.50967742 297.854269,7.69943074 L302.170778,14.002277 C302.265655,14.1578748 302.391651,14.3157495 302.391651,14.4743833 C302.391651,14.6003795 302.328653,14.7574953 302.170778,14.9791271 L297.696395,21.5969639 C297.571157,21.7844402 297.476281,21.9127135 297.476281,22.1313093 C297.476281,22.3840607 297.632638,22.5419355 298.012144,22.5419355 L299.586338,22.5419355 C300.027324,22.5419355 300.122201,22.3195446 300.217078,22.1631879 L303.493738,16.8379507 C303.588615,16.6808349 303.683491,16.5548387 303.809488,16.5548387 C303.967362,16.5548387 304.029602,16.7111954 304.157116,16.8683112 L307.779886,22.1631879 C307.906641,22.3195446 308.000759,22.5419355 308.442505,22.5419355 L310.490323,22.5419355 C310.868311,22.5419355 311.026186,22.3521822 311.026186,22.1009488 L311.026186,22.1009488 Z M327.74649,14.4425047 C327.74649,9.52485769 325.100569,6.50018975 320.468311,6.50018975 C318.073624,6.50018975 317.096774,7.38368121 316.403036,7.38368121 C316.087287,7.38368121 316.087287,7.28880455 316.087287,7.16356736 C316.087287,6.94193548 316.023529,6.75294118 315.6463,6.75294118 L313.943833,6.75294118 C313.6926,6.75294118 313.377609,6.81593928 313.377609,7.32144213 L313.377609,28.4986717 C313.377609,29.0018975 313.6926,29.0648956 313.943833,29.0648956 L315.741176,29.0648956 C315.99241,29.0648956 316.308159,29.0018975 316.308159,28.4986717 L316.308159,22.3195446 C316.308159,22.0690702 316.370398,21.9127135 316.591271,21.9127135 C316.906262,21.9127135 318.073624,22.7946869 320.278558,22.7946869 C324.879696,22.7946869 327.74649,19.6743833 327.74649,14.4425047 L327.74649,14.4425047 Z M324.659583,14.5055028 C324.659583,20.0212524 321.350285,20.5882353 319.552941,20.5882353 C318.923719,20.5882353 318.198861,20.4925996 317.632638,20.2717268 C316.749146,19.9256167 316.308159,19.5468691 316.308159,18.5388994 L316.308159,10.7537002 C316.308159,9.74648956 316.749146,9.36925996 317.632638,9.02239089 C318.198861,8.80151803 318.923719,8.70588235 319.552941,8.70588235 C323.241746,8.70588235 324.659583,10.9768501 324.659583,14.5055028 L324.659583,14.5055028 Z M344.20038,14.4106262 L344.20038,13.656167 C344.20038,11.1332068 343.255408,6.50018975 337.424668,6.50018975 C332.539658,6.50018975 330.144972,10.3468691 330.144972,14.8212524 C330.144972,20.9973435 334.052372,22.7946869 338.118406,22.7946869 C340.040228,22.7946869 342.278558,22.4478178 343.065655,21.8489564 C343.379886,21.6280835 343.413283,21.4368121 343.413283,21.029222 L343.413283,19.9574953 C343.413283,19.7062619 343.318406,19.4527514 342.972296,19.4527514 C342.750664,19.4527514 342.656546,19.5165085 342.466793,19.6106262 C341.867932,19.9256167 340.355218,20.5882353 338.433397,20.5882353 C335.597723,20.5882353 333.233397,19.0755218 333.233397,15.4201139 C333.233397,15.1036053 333.42315,14.9791271 333.707021,14.9791271 L343.632638,14.9791271 C343.885389,14.9791271 344.20038,14.914611 344.20038,14.4106262 L344.20038,14.4106262 Z M341.143833,12.456167 C341.143833,12.8037951 341.048956,12.8667932 340.765844,12.8667932 L333.611385,12.8667932 C333.296395,12.8667932 333.233397,12.740038 333.233397,12.5510436 C333.233397,11.5119545 333.927135,8.64440228 337.329791,8.64440228 C338.96926,8.64440228 341.143833,9.49373814 341.143833,12.456167 L341.143833,12.456167 Z M355.870209,8.80151803 L355.870209,7.54155598 C355.870209,6.97381404 355.870209,6.50018975 354.482732,6.50018975 C352.497154,6.50018975 351.426186,7.69943074 350.513093,7.69943074 C350.324099,7.69943074 350.166224,7.57191651 350.166224,7.41555977 L350.166224,7.16356736 C350.166224,6.94193548 350.102467,6.75294118 349.725237,6.75294118 L348.02277,6.75294118 C347.771537,6.75294118 347.455028,6.81593928 347.455028,7.32144213 L347.455028,21.9749526 C347.455028,22.4789374 347.771537,22.5419355 348.02277,22.5419355 L349.820114,22.5419355 C350.071347,22.5419355 350.385579,22.4789374 350.385579,21.9749526 L350.385579,11.5119545 C350.385579,10.3468691 350.733207,9.02239089 353.127894,9.02239089 C354.798482,9.02239089 354.956357,9.2743833 355.429222,9.2743833 C355.744972,9.2743833 355.870209,9.08614801 355.870209,8.80151803 L355.870209,8.80151803 Z M368.245161,21.659962 L368.245161,20.4614801 C368.245161,20.0819734 368.056167,19.9574953 367.803416,19.9574953 C367.394307,19.9574953 366.951803,20.5578748 365.408729,20.5578748 C364.242884,20.5578748 363.707021,20.0819734 363.455787,19.4527514 C363.266034,19.0110057 363.234156,18.6034156 363.234156,17.6258065 L363.234156,9.30474383 C363.234156,9.02239089 363.391271,8.92751423 363.518786,8.92751423 L367.678937,8.92751423 C367.930171,8.92751423 368.245161,8.86451613 368.245161,8.3597723 L368.245161,7.32144213 C368.245161,6.81593928 367.930171,6.75294118 367.678937,6.75294118 L363.518786,6.75294118 C363.391271,6.75294118 363.234156,6.65806452 363.234156,6.37495256 L363.234156,3.12789374 C363.234156,2.62542694 362.919924,2.56166983 362.667173,2.56166983 L360.871347,2.56166983 C360.618596,2.56166983 360.304364,2.62542694 360.304364,3.12789374 L360.304364,6.37495256 C360.304364,6.65806452 360.14649,6.75294118 360.019734,6.75294118 L358.350664,6.75294118 C358.097913,6.75294118 357.782163,6.81593928 357.782163,7.32144213 L357.782163,8.3597723 C357.782163,8.86451613 358.097913,8.92751423 358.350664,8.92751423 L360.019734,8.92751423 C360.14649,8.92751423 360.304364,9.02239089 360.304364,9.30474383 L360.304364,17.6258065 C360.304364,19.486148 360.523719,20.9654649 361.595446,21.8489564 C362.477419,22.573055 363.770019,22.7946869 364.903985,22.7946869 C366.03871,22.7946869 368.245161,22.511575 368.245161,21.659962 L368.245161,21.659962 Z M383.762429,14.4106262 L383.762429,13.656167 C383.762429,11.1332068 382.816698,6.50018975 376.987476,6.50018975 C372.102467,6.50018975 369.70778,10.3468691 369.70778,14.8212524 C369.70778,20.9973435 373.61518,22.7946869 377.680455,22.7946869 C379.602277,22.7946869 381.839848,22.4478178 382.627704,21.8489564 C382.943454,21.6280835 382.974573,21.4368121 382.974573,21.029222 L382.974573,19.9574953 C382.974573,19.7062619 382.880455,19.4527514 382.532827,19.4527514 C382.312713,19.4527514 382.219355,19.5165085 382.029602,19.6106262 C381.43074,19.9256167 379.918027,20.5882353 377.994687,20.5882353 C375.159013,20.5882353 372.796205,19.0755218 372.796205,15.4201139 C372.796205,15.1036053 372.98444,14.9791271 373.26907,14.9791271 L383.196205,14.9791271 C383.44592,14.9791271 383.762429,14.914611 383.762429,14.4106262 L383.762429,14.4106262 Z M380.706641,12.456167 C380.706641,12.8037951 380.611765,12.8667932 380.327894,12.8667932 L373.174194,12.8667932 C372.858444,12.8667932 372.796205,12.740038 372.796205,12.5510436 C372.796205,11.5119545 373.489184,8.64440228 376.8926,8.64440228 C378.53055,8.64440228 380.706641,9.49373814 380.706641,12.456167 L380.706641,12.456167 Z M399.969639,21.9749526 L399.969639,13.1825427 C399.969639,10.5981025 399.812524,9.2113852 398.772676,8.07590133 C397.795825,6.97381404 396.157116,6.50018975 394.360531,6.50018975 C393.383681,6.50018975 392.122201,6.72106262 391.208349,7.09981025 C390.925996,7.22656546 390.421252,7.38368121 390.044023,7.38368121 C389.727514,7.38368121 389.727514,7.28880455 389.727514,7.16356736 C389.727514,6.94193548 389.666034,6.75294118 389.286528,6.75294118 L387.58482,6.75294118 C387.332068,6.75294118 387.018596,6.81593928 387.018596,7.32144213 L387.018596,21.9749526 C387.018596,22.4789374 387.332068,22.5419355 387.58482,22.5419355 L389.379886,22.5419355 C389.633397,22.5419355 389.949146,22.4789374 389.949146,21.9749526 L389.949146,10.6937381 C389.949146,9.77760911 390.358254,9.40037951 391.178748,9.08614801 C391.80797,8.8341556 392.658065,8.67628083 393.383681,8.67628083 C394.706641,8.67628083 395.716129,9.02239089 396.346869,9.71537002 C396.882732,10.3779886 397.037571,11.259203 397.037571,12.740038 L397.037571,21.9749526 C397.037571,22.4789374 397.35408,22.5419355 397.606831,22.5419355 L399.401898,22.5419355 C399.654649,22.5419355 399.969639,22.4789374 399.969639,21.9749526 L399.969639,21.9749526 Z" id="Fill-3"></path>
                <path d="M56.0629981,33.2 L56.0629981,32.6254269 C56.0629981,32.3537002 55.714611,32.1867173 54.9426945,32.1867173 C54.398482,32.1867173 53.943833,32.2785579 53.5203036,32.6254269 C52.8698292,33.1544592 52.8698292,33.9870968 52.8698292,34.457685 L52.8698292,35.140038 C52.8698292,35.2759013 52.7946869,35.3206831 52.7339658,35.3206831 L51.9316888,35.3206831 C51.8102467,35.3206831 51.658444,35.3518027 51.658444,35.5931689 L51.658444,36.0925996 C51.658444,36.3339658 51.8102467,36.3628083 51.9316888,36.3628083 L52.7339658,36.3628083 C52.7946869,36.3628083 52.8698292,36.4083491 52.8698292,36.5464896 L52.8698292,42.6314991 C52.8698292,42.8728653 53.0216319,42.9047438 53.143074,42.9047438 L54.0045541,42.9047438 C54.1244782,42.9047438 54.2762808,42.8728653 54.2762808,42.6314991 L54.2762808,36.5464896 C54.2762808,36.4083491 54.3529412,36.3628083 54.4121442,36.3628083 L55.6994307,36.3628083 C55.8193548,36.3628083 55.9711575,36.3339658 55.9711575,36.0925996 L55.9711575,35.5931689 C55.9711575,35.3518027 55.8193548,35.3206831 55.6994307,35.3206831 L54.4121442,35.3206831 C54.3529412,35.3206831 54.2762808,35.2759013 54.2762808,35.140038 L54.2762808,34.4425047 C54.2762808,33.941556 54.2603416,33.2607211 55.1392789,33.2607211 C55.5779886,33.2607211 55.6834915,33.4413662 55.8664137,33.4413662 C56.002277,33.4413662 56.0629981,33.3806452 56.0629981,33.2 L56.0629981,33.2 Z M63.7533207,42.6330171 L63.7533207,35.5931689 C63.7533207,35.3518027 63.601518,35.3206831 63.4815939,35.3206831 L62.6201139,35.3206831 C62.4979127,35.3206831 62.3476281,35.3518027 62.3476281,35.5931689 L62.3476281,41.0140417 C62.3476281,41.4527514 62.1502846,41.6333966 61.7571157,41.7851992 C61.4535104,41.9074004 61.029981,41.9825427 60.6815939,41.9825427 C60.0447818,41.9825427 59.5605313,41.83074 59.256926,41.4982922 C58.9988615,41.1795066 58.9396584,40.7567362 58.9396584,40.0455408 L58.9396584,35.5931689 C58.9396584,35.3518027 58.7878558,35.3206831 58.6664137,35.3206831 L57.8049336,35.3206831 C57.6842505,35.3206831 57.5332068,35.3518027 57.5332068,35.5931689 L57.5332068,39.8330171 C57.5332068,41.0740038 57.5939279,41.7396584 58.0925996,42.28463 C58.5609108,42.8136622 59.3487666,43.0246679 60.2117647,43.0246679 C60.6815939,43.0246679 61.3024668,42.9184061 61.7411765,42.7377609 C61.8785579,42.6785579 62.1199241,42.6011385 62.3013283,42.6011385 C62.4523719,42.6011385 62.4523719,42.6466793 62.4523719,42.7074004 C62.4523719,42.8121442 62.4834915,42.9047438 62.6648956,42.9047438 L63.4815939,42.9047438 C63.601518,42.9047438 63.7533207,42.8728653 63.7533207,42.6314991 L63.7533207,42.6330171 L63.7533207,42.6330171 Z M62.799241,33.5499051 C62.799241,33.0193548 62.512334,32.8068311 62.0288425,32.8068311 C61.5286528,32.8068311 61.2273245,33.0193548 61.2273245,33.5332068 C61.2273245,34.0629981 61.5149905,34.2755218 61.998482,34.2755218 C62.4971537,34.2755218 62.799241,34.0629981 62.799241,33.5499051 L62.799241,33.5499051 Z M60.1351044,33.5499051 C60.1351044,33.0193548 59.8481973,32.8068311 59.3639469,32.8068311 C58.8645161,32.8068311 58.5631879,33.0193548 58.5631879,33.5332068 C58.5631879,34.0629981 58.8508539,34.2755218 59.3343454,34.2755218 C59.8322581,34.2755218 60.1351044,34.0629981 60.1351044,33.5499051 L60.1351044,33.5499051 Z M70.4296015,36.3043643 L70.4296015,35.6979127 C70.4296015,35.426186 70.4296015,35.2 69.7639469,35.2 C68.8098672,35.2 68.2952562,35.773814 67.8565465,35.773814 C67.7654649,35.773814 67.6895636,35.713093 67.6895636,35.6371917 L67.6895636,35.5172676 C67.6895636,35.4110057 67.659203,35.3206831 67.4785579,35.3206831 L66.6618596,35.3206831 C66.5404175,35.3206831 66.3886148,35.3518027 66.3886148,35.5931689 L66.3886148,42.6314991 C66.3886148,42.8728653 66.5404175,42.9047438 66.6618596,42.9047438 L67.5233397,42.9047438 C67.6440228,42.9047438 67.7958254,42.8728653 67.7958254,42.6314991 L67.7958254,37.6060721 C67.7958254,37.0451613 67.9628083,36.4083491 69.1127135,36.4083491 C69.9149905,36.4083491 69.9916509,36.5297913 70.2178368,36.5297913 C70.3696395,36.5297913 70.4296015,36.4402277 70.4296015,36.3043643 L70.4296015,36.3043643 Z M80.5578748,33.6250474 L80.5578748,33.0800759 C80.5578748,32.8371917 80.4060721,32.8068311 80.28463,32.8068311 L75.2447818,32.8068311 C75.1240987,32.8068311 74.973055,32.8371917 74.973055,33.0800759 L74.973055,42.6314991 C74.973055,42.8728653 75.1240987,42.9047438 75.2447818,42.9047438 L76.1677419,42.9047438 C76.2891841,42.9047438 76.4402277,42.8728653 76.4402277,42.6314991 L76.4402277,38.2709677 C76.4402277,38.1191651 76.5313093,38.0888046 76.5920304,38.0888046 L79.5134725,38.0888046 C79.6341556,38.0888046 79.7851992,38.059962 79.7851992,37.8185958 L79.7851992,37.2728653 C79.7851992,37.0314991 79.6341556,37.0026565 79.5134725,37.0026565 L76.5920304,37.0026565 C76.5313093,37.0026565 76.4402277,36.9571157 76.4402277,36.8204934 L76.4402277,34.0781784 C76.4402277,33.9263757 76.5313093,33.8960152 76.5920304,33.8960152 L80.28463,33.8960152 C80.4060721,33.8960152 80.5578748,33.8664137 80.5578748,33.6250474 L80.5578748,33.6250474 Z M88.9753321,39.0899431 C88.9753321,36.742315 87.7199241,35.2 85.3426945,35.2 C82.8743833,35.2 81.6948767,36.8629981 81.6948767,39.1354839 C81.6948767,41.483112 82.9502846,43.0246679 85.3275142,43.0246679 C87.7958254,43.0246679 88.9753321,41.3609108 88.9753321,39.0899431 L88.9753321,39.0899431 Z M87.4937381,39.0595825 C87.4937381,40.573055 87.1301708,41.9825427 85.3426945,41.9825427 C83.5703985,41.9825427 83.1764706,40.6489564 83.1764706,39.1658444 C83.1764706,37.6516129 83.540797,36.2428843 85.3275142,36.2428843 C87.1005693,36.2428843 87.4937381,37.5749526 87.4937381,39.0595825 L87.4937381,39.0595825 Z M87.370778,33.5499051 C87.370778,33.0193548 87.083112,32.8068311 86.5996205,32.8068311 C86.1001898,32.8068311 85.7981025,33.0193548 85.7981025,33.5332068 C85.7981025,34.0629981 86.0857685,34.2755218 86.570019,34.2755218 C87.0671727,34.2755218 87.370778,34.0629981 87.370778,33.5499051 L87.370778,33.5499051 Z M84.7066414,33.5499051 C84.7066414,33.0193548 84.4189753,32.8068311 83.9347249,32.8068311 C83.4360531,32.8068311 83.1324478,33.0193548 83.1324478,33.5332068 C83.1324478,34.0629981 83.4201139,34.2755218 83.9036053,34.2755218 C84.4037951,34.2755218 84.7066414,34.0629981 84.7066414,33.5499051 L84.7066414,33.5499051 Z M95.1666034,36.3043643 L95.1666034,35.6979127 C95.1666034,35.426186 95.1666034,35.2 94.5017078,35.2 C93.5483871,35.2 93.0330171,35.773814 92.5927894,35.773814 C92.5024668,35.773814 92.4273245,35.713093 92.4273245,35.6371917 L92.4273245,35.5172676 C92.4273245,35.4110057 92.3962049,35.3206831 92.2148008,35.3206831 L91.3988615,35.3206831 C91.2781784,35.3206831 91.1271347,35.3518027 91.1271347,35.5931689 L91.1271347,42.6314991 C91.1271347,42.8728653 91.2781784,42.9047438 91.3988615,42.9047438 L92.2603416,42.9047438 C92.3825427,42.9047438 92.5335863,42.8728653 92.5335863,42.6314991 L92.5335863,37.6060721 C92.5335863,37.0451613 92.6990512,36.4083491 93.8504744,36.4083491 C94.6527514,36.4083491 94.7286528,36.5297913 94.9555977,36.5297913 C95.1074004,36.5297913 95.1666034,36.4402277 95.1666034,36.3043643 L95.1666034,36.3043643 Z M103.13093,42.6330171 L103.13093,32.5821632 C103.13093,32.3385199 102.979886,32.3089184 102.857685,32.3089184 L101.996205,32.3089184 C101.876281,32.3089184 101.724478,32.3385199 101.724478,32.5821632 L101.724478,35.426186 C101.724478,35.5468691 101.694877,35.6235294 101.588615,35.6235294 C101.451233,35.6235294 100.936622,35.2 99.8611006,35.2 C97.6804554,35.2 96.228463,36.6056926 96.228463,39.2113852 C96.228463,41.5726755 97.4982922,43.0246679 99.7252372,43.0246679 C100.875901,43.0246679 101.344972,42.6011385 101.678937,42.6011385 C101.83074,42.6011385 101.83074,42.6466793 101.83074,42.7074004 C101.83074,42.8121442 101.860342,42.9047438 102.041746,42.9047438 L102.857685,42.9047438 C102.979886,42.9047438 103.13093,42.8728653 103.13093,42.6314991 L103.13093,42.6330171 L103.13093,42.6330171 Z M101.724478,40.9814042 C101.724478,41.4656546 101.511954,41.6478178 101.087666,41.8140417 C100.815939,41.9225806 100.466793,41.9681214 100.163947,41.9681214 C98.3931689,41.9681214 97.7100569,40.8766603 97.7100569,39.1810247 C97.7100569,36.5297913 99.3009488,36.2565465 100.163947,36.2565465 C100.466793,36.2565465 100.815939,36.3020873 101.087666,36.4083491 C101.511954,36.5753321 101.724478,36.7574953 101.724478,37.2425047 L101.724478,40.9814042 L101.724478,40.9814042 Z M112.031879,38.9988615 L112.031879,38.6345351 C112.031879,37.4246679 111.579507,35.2 108.777989,35.2 C106.43112,35.2 105.281214,37.0451613 105.281214,39.1946869 C105.281214,42.1631879 107.158254,43.0246679 109.111954,43.0246679 C110.035674,43.0246679 111.109677,42.859203 111.486907,42.572296 C111.63871,42.4660342 111.65389,42.3757116 111.65389,42.1783681 L111.65389,41.6637571 C111.65389,41.543833 111.609108,41.4223909 111.442125,41.4223909 C111.337381,41.4223909 111.291082,41.4527514 111.2,41.4982922 C110.913093,41.6500949 110.186717,41.9681214 109.262998,41.9681214 C107.899051,41.9681214 106.762808,41.2402277 106.762808,39.4815939 C106.762808,39.3297913 106.854649,39.2721063 106.991271,39.2721063 L111.760152,39.2721063 C111.880835,39.2721063 112.031879,39.2402277 112.031879,38.9988615 L112.031879,38.9988615 Z M110.566224,38.0614801 C110.566224,38.228463 110.520683,38.2580645 110.383302,38.2580645 L106.945731,38.2580645 C106.793928,38.2580645 106.762808,38.1973435 106.762808,38.1070209 C106.762808,37.6060721 107.096774,36.227704 108.732448,36.227704 C109.520304,36.227704 110.566224,36.6360531 110.566224,38.0614801 L110.566224,38.0614801 Z M118.223909,36.3043643 L118.223909,35.6979127 C118.223909,35.426186 118.223909,35.2 117.557495,35.2 C116.603416,35.2 116.089564,35.773814 115.650095,35.773814 C115.559013,35.773814 115.48463,35.713093 115.48463,35.6371917 L115.48463,35.5172676 C115.48463,35.4110057 115.45351,35.3206831 115.272106,35.3206831 L114.455408,35.3206831 C114.335484,35.3206831 114.183681,35.3518027 114.183681,35.5931689 L114.183681,42.6314991 C114.183681,42.8728653 114.335484,42.9047438 114.455408,42.9047438 L115.317647,42.9047438 C115.439089,42.9047438 115.588615,42.8728653 115.588615,42.6314991 L115.588615,37.6060721 C115.588615,37.0451613 115.756357,36.4083491 116.906262,36.4083491 C117.708539,36.4083491 117.785199,36.5297913 118.011385,36.5297913 C118.163188,36.5297913 118.223909,36.4402277 118.223909,36.3043643 L118.223909,36.3043643 Z M126.672486,39.0140417 C126.672486,36.6519924 125.401139,35.2 123.175712,35.2 C122.024288,35.2 121.554459,35.6235294 121.221252,35.6235294 C121.070968,35.6235294 121.070968,35.5779886 121.070968,35.5172676 C121.070968,35.4125237 121.040607,35.3206831 120.858444,35.3206831 L120.041746,35.3206831 C119.921063,35.3206831 119.770019,35.3518027 119.770019,35.5931689 L119.770019,45.7654649 C119.770019,46.0068311 119.921063,46.0371917 120.041746,46.0371917 L120.903985,46.0371917 C121.025427,46.0371917 121.176471,46.0068311 121.176471,45.7654649 L121.176471,42.798482 C121.176471,42.6785579 121.206831,42.6011385 121.312334,42.6011385 C121.463378,42.6011385 122.024288,43.0246679 123.08463,43.0246679 C125.297154,43.0246679 126.672486,41.5286528 126.672486,39.0140417 L126.672486,39.0140417 Z M125.190892,39.0466793 C125.190892,41.6956357 123.6,41.9681214 122.736243,41.9681214 C122.432638,41.9681214 122.085009,41.9225806 121.811765,41.8170778 C121.388994,41.6500949 121.176471,41.4679317 121.176471,40.9829222 L121.176471,37.2440228 C121.176471,36.7597723 121.388994,36.5776091 121.811765,36.4106262 C122.085009,36.3020873 122.432638,36.2565465 122.736243,36.2565465 C124.508539,36.2565465 125.190892,37.3487666 125.190892,39.0444023 L125.190892,39.0466793 L125.190892,39.0466793 Z M132.862998,36.3043643 L132.862998,35.6979127 C132.862998,35.426186 132.862998,35.2 132.197343,35.2 C131.243264,35.2 130.728653,35.773814 130.289943,35.773814 C130.198861,35.773814 130.12296,35.713093 130.12296,35.6371917 L130.12296,35.5172676 C130.12296,35.4110057 130.0926,35.3206831 129.911954,35.3206831 L129.095256,35.3206831 C128.973814,35.3206831 128.823529,35.3518027 128.823529,35.5931689 L128.823529,42.6314991 C128.823529,42.8728653 128.973814,42.9047438 129.095256,42.9047438 L129.956736,42.9047438 C130.077419,42.9047438 130.229222,42.8728653 130.229222,42.6314991 L130.229222,37.6060721 C130.229222,37.0451613 130.396205,36.4083491 131.54611,36.4083491 C132.348387,36.4083491 132.425047,36.5297913 132.651233,36.5297913 C132.803036,36.5297913 132.862998,36.4402277 132.862998,36.3043643 L132.862998,36.3043643 Z M141.206072,39.0899431 C141.206072,36.742315 139.950664,35.2 137.572676,35.2 C135.104364,35.2 133.924858,36.8629981 133.924858,39.1354839 C133.924858,41.483112 135.179507,43.0246679 137.557495,43.0246679 C140.025806,43.0246679 141.206072,41.3609108 141.206072,39.0899431 L141.206072,39.0899431 Z M139.724478,39.0595825 C139.724478,40.573055 139.360152,41.9825427 137.572676,41.9825427 C135.801139,41.9825427 135.40797,40.6489564 135.40797,39.1658444 C135.40797,37.6516129 135.770778,36.2428843 137.557495,36.2428843 C139.329791,36.2428843 139.724478,37.5749526 139.724478,39.0595825 L139.724478,39.0595825 Z M149.848956,42.798482 L149.848956,35.5931689 C149.848956,35.3206831 149.652372,35.3206831 149.57723,35.3206831 L148.76129,35.3206831 C148.564706,35.3206831 148.550285,35.4125237 148.550285,35.5172676 C148.550285,35.5779886 148.550285,35.6235294 148.383302,35.6235294 C148.050095,35.6235294 147.656167,35.2 146.580645,35.2 C144.399241,35.2 142.948767,36.5464896 142.948767,39.1506641 C142.948767,41.5134725 144.217837,42.9047438 146.444782,42.9047438 C147.549905,42.9047438 148.125237,42.4356736 148.306641,42.4356736 C148.412903,42.4356736 148.444023,42.511575 148.444023,42.6314991 L148.444023,43.1309298 C148.444023,43.6614801 148.383302,44.2223909 147.914231,44.5396584 C147.443643,44.858444 146.747628,44.9647059 146.187476,44.9647059 C144.854649,44.9647059 144.097913,44.571537 143.765465,44.3893738 C143.674383,44.343833 143.627324,44.3134725 143.52334,44.3134725 C143.386717,44.3134725 143.325996,44.4197343 143.325996,44.5563567 L143.325996,45.0998102 C143.325996,45.2812144 143.325996,45.372296 143.477799,45.4785579 C143.733586,45.659203 144.83871,46.0371917 146.081973,46.0371917 C147.777609,46.0371917 149.078558,45.6 149.593169,44.4652751 C149.774573,44.056167 149.848956,43.5855787 149.848956,42.798482 L149.848956,42.798482 Z M148.444023,40.8614801 C148.444023,41.3464896 148.231499,41.5286528 147.80797,41.6956357 C147.533966,41.8018975 147.187097,41.8459203 146.883491,41.8459203 C145.112713,41.8459203 144.430361,40.8159393 144.430361,39.1203036 C144.430361,36.4690702 146.020493,36.2565465 146.883491,36.2565465 C147.187097,36.2565465 147.533966,36.3020873 147.80797,36.4083491 C148.231499,36.5753321 148.444023,36.7582543 148.444023,37.2425047 L148.444023,40.8614801 L148.444023,40.8614801 Z M156.722581,36.3043643 L156.722581,35.6979127 C156.722581,35.426186 156.722581,35.2 156.056926,35.2 C155.102846,35.2 154.587476,35.773814 154.149526,35.773814 C154.058444,35.773814 153.982543,35.713093 153.982543,35.6371917 L153.982543,35.5172676 C153.982543,35.4110057 153.952941,35.3206831 153.771537,35.3206831 L152.954839,35.3206831 C152.833397,35.3206831 152.683112,35.3518027 152.683112,35.5931689 L152.683112,42.6314991 C152.683112,42.8728653 152.833397,42.9047438 152.954839,42.9047438 L153.817078,42.9047438 C153.937002,42.9047438 154.088805,42.8728653 154.088805,42.6314991 L154.088805,37.6060721 C154.088805,37.0451613 154.255787,36.4083491 155.405693,36.4083491 C156.20797,36.4083491 156.283871,36.5297913 156.510057,36.5297913 C156.66186,36.5297913 156.722581,36.4402277 156.722581,36.3043643 L156.722581,36.3043643 Z M163.82315,42.6330171 L163.82315,37.8322581 C163.82315,36.6975332 163.718406,36.227704 163.309298,35.8193548 C163.082353,35.5924099 162.583681,35.2 161.143833,35.2 C159.630361,35.2 158.706641,35.5779886 158.495636,35.7297913 C158.343833,35.8345351 158.343833,35.9256167 158.343833,36.1062619 L158.343833,36.6664137 C158.343833,36.802277 158.405313,36.9085389 158.541176,36.9085389 C158.647438,36.9085389 158.69222,36.8781784 158.783302,36.8333966 C159.114991,36.6519924 159.751044,36.2732448 161.00797,36.2732448 C162.311954,36.2732448 162.418216,36.7878558 162.418216,37.2880455 L162.418216,37.5294118 C162.418216,37.8322581 162.235294,37.9248577 161.97723,37.999241 L160.204934,38.5449715 C158.812903,38.9836812 157.814801,39.4679317 157.814801,40.9373814 C157.814801,41.9825427 158.299051,43.0246679 160.342315,43.0246679 C161.493738,43.0246679 162.02277,42.6011385 162.372676,42.6011385 C162.523719,42.6011385 162.523719,42.6466793 162.523719,42.7074004 C162.523719,42.8121442 162.55408,42.9047438 162.734725,42.9047438 L163.551423,42.9047438 C163.672865,42.9047438 163.82315,42.8728653 163.82315,42.6314991 L163.82315,42.6330171 L163.82315,42.6330171 Z M162.418216,40.9662239 C162.418216,41.3745731 162.356736,41.541556 161.97723,41.7229602 C161.599241,41.9074004 161.114231,41.9681214 160.690702,41.9681214 C159.918027,41.9681214 159.296395,41.7108159 159.296395,40.8462998 C159.296395,39.8633776 160.024288,39.6796964 160.841746,39.4079696 L162.05389,38.9988615 C162.189753,38.9533207 162.189753,38.9381404 162.296015,38.9381404 C162.386338,38.9381404 162.418216,38.9836812 162.418216,39.0899431 L162.418216,40.9662239 L162.418216,40.9662239 Z M177.11575,42.6314991 L177.11575,38.4075901 C177.11575,37.1666034 177.039089,36.4994307 176.541176,35.9559772 C176.072865,35.426186 175.451233,35.2 174.588235,35.2 C172.906262,35.2 172.452372,35.8648956 172.013662,35.8648956 L171.92334,35.8648956 C171.606072,35.8648956 171.348767,35.2 169.879317,35.2 C169.303985,35.2 168.834915,35.3055028 168.395446,35.488425 C168.259583,35.5491461 168.016698,35.6235294 167.836053,35.6235294 C167.68425,35.6235294 167.68425,35.5779886 167.68425,35.5172676 C167.68425,35.4110057 167.653131,35.3206831 167.471727,35.3206831 L166.655787,35.3206831 C166.535104,35.3206831 166.384061,35.3518027 166.384061,35.5931689 L166.384061,42.6314991 C166.384061,42.8728653 166.535104,42.9047438 166.655787,42.9047438 L167.517268,42.9047438 C167.63871,42.9047438 167.790512,42.8728653 167.790512,42.6314991 L167.790512,37.2121442 C167.790512,36.7734345 167.987097,36.5927894 168.380266,36.4409867 C168.683112,36.3172676 169.016319,36.2428843 169.364706,36.2428843 C170.001518,36.2428843 170.410626,36.3946869 170.712713,36.7271347 C170.970778,37.0451613 171.047438,37.4398482 171.047438,38.1495256 L171.047438,42.6314991 C171.047438,42.8728653 171.196964,42.9047438 171.319165,42.9047438 L172.180645,42.9047438 C172.300569,42.9047438 172.452372,42.8728653 172.452372,42.6314991 L172.452372,37.2106262 C172.452372,36.7726755 172.648956,36.5912713 173.043643,36.4402277 C173.34649,36.3172676 173.679696,36.2428843 174.028083,36.2428843 C174.663378,36.2428843 175.074004,36.3946869 175.376091,36.7271347 C175.634156,37.0451613 175.709298,37.4398482 175.709298,38.1495256 L175.709298,42.6314991 C175.709298,42.8728653 175.860342,42.9047438 175.982543,42.9047438 L176.844023,42.9047438 C176.963947,42.9047438 177.11575,42.8728653 177.11575,42.6314991 L177.11575,42.6314991 Z M190.40759,42.6314991 L190.40759,38.4075901 C190.40759,37.1666034 190.332448,36.4994307 189.832258,35.9559772 C189.364706,35.426186 188.744592,35.2 187.880076,35.2 C186.19962,35.2 185.744213,35.8648956 185.306262,35.8648956 L185.216698,35.8648956 C184.897913,35.8648956 184.641366,35.2 183.172676,35.2 C182.596584,35.2 182.127514,35.3055028 181.687287,35.488425 C181.551423,35.5491461 181.309298,35.6235294 181.127135,35.6235294 C180.975332,35.6235294 180.975332,35.5779886 180.975332,35.5172676 C180.975332,35.4110057 180.945731,35.3206831 180.764326,35.3206831 L179.948387,35.3206831 C179.826186,35.3206831 179.675142,35.3518027 179.675142,35.5931689 L179.675142,42.6314991 C179.675142,42.8728653 179.826186,42.9047438 179.948387,42.9047438 L180.809867,42.9047438 C180.929791,42.9047438 181.081594,42.8728653 181.081594,42.6314991 L181.081594,37.2121442 C181.081594,36.7734345 181.278178,36.5927894 181.672865,36.4409867 C181.975712,36.3172676 182.308159,36.2428843 182.657306,36.2428843 C183.293359,36.2428843 183.702467,36.3946869 184.006072,36.7271347 C184.263378,37.0451613 184.337761,37.4398482 184.337761,38.1495256 L184.337761,42.6314991 C184.337761,42.8728653 184.489564,42.9047438 184.609488,42.9047438 L185.471727,42.9047438 C185.593928,42.9047438 185.744213,42.8728653 185.744213,42.6314991 L185.744213,37.2106262 C185.744213,36.7726755 185.941556,36.5912713 186.334725,36.4402277 C186.637571,36.3172676 186.971537,36.2428843 187.319924,36.2428843 C187.955977,36.2428843 188.365085,36.3946869 188.668691,36.7271347 C188.925237,37.0451613 189.001898,37.4398482 189.001898,38.1495256 L189.001898,42.6314991 C189.001898,42.8728653 189.152182,42.9047438 189.273624,42.9047438 L190.135863,42.9047438 C190.255787,42.9047438 190.40759,42.8728653 190.40759,42.6314991 L190.40759,42.6314991 Z M199.234156,38.9988615 L199.234156,38.6345351 C199.234156,37.4246679 198.780266,35.2 195.980266,35.2 C193.633397,35.2 192.481973,37.0451613 192.481973,39.1946869 C192.481973,42.1631879 194.359013,43.0246679 196.311954,43.0246679 C197.237192,43.0246679 198.310436,42.859203 198.690702,42.572296 C198.839469,42.4660342 198.856167,42.3757116 198.856167,42.1783681 L198.856167,41.6637571 C198.856167,41.543833 198.810626,41.4223909 198.645161,41.4223909 C198.538899,41.4223909 198.493359,41.4527514 198.402277,41.4982922 C198.11537,41.6500949 197.387476,41.9681214 196.463757,41.9681214 C195.102087,41.9681214 193.965844,41.2402277 193.965844,39.4815939 C193.965844,39.3297913 194.056926,39.2721063 194.19203,39.2721063 L198.962429,39.2721063 C199.082353,39.2721063 199.234156,39.2402277 199.234156,38.9988615 L199.234156,38.9988615 Z M197.766983,38.0614801 C197.766983,38.228463 197.722201,38.2580645 197.58482,38.2580645 L194.14649,38.2580645 C193.996205,38.2580645 193.965844,38.1973435 193.965844,38.1070209 C193.965844,37.6060721 194.298292,36.227704 195.933207,36.227704 C196.721822,36.227704 197.766983,36.6360531 197.766983,38.0614801 L197.766983,38.0614801 Z M210.754459,42.6330171 L210.754459,32.5821632 C210.754459,32.3385199 210.604175,32.3089184 210.481214,32.3089184 L209.619734,32.3089184 C209.49981,32.3089184 209.348008,32.3385199 209.348008,32.5821632 L209.348008,35.426186 C209.348008,35.5468691 209.319165,35.6235294 209.212903,35.6235294 C209.074763,35.6235294 208.560911,35.2 207.485389,35.2 C205.303985,35.2 203.852751,36.6056926 203.852751,39.2113852 C203.852751,41.5726755 205.12334,43.0246679 207.348767,43.0246679 C208.50019,43.0246679 208.968501,42.6011385 209.302467,42.6011385 C209.454269,42.6011385 209.454269,42.6466793 209.454269,42.7074004 C209.454269,42.8121442 209.48463,42.9047438 209.665275,42.9047438 L210.481214,42.9047438 C210.604175,42.9047438 210.754459,42.8728653 210.754459,42.6314991 L210.754459,42.6330171 L210.754459,42.6330171 Z M209.348008,40.9814042 C209.348008,41.4656546 209.135484,41.6478178 208.711195,41.8140417 C208.439469,41.9225806 208.091841,41.9681214 207.787476,41.9681214 C206.015939,41.9681214 205.334345,40.8766603 205.334345,39.1810247 C205.334345,36.5297913 206.924478,36.2565465 207.787476,36.2565465 C208.091841,36.2565465 208.439469,36.3020873 208.711195,36.4083491 C209.135484,36.5753321 209.348008,36.7574953 209.348008,37.2425047 L209.348008,40.9814042 L209.348008,40.9814042 Z M219.655408,38.9988615 L219.655408,38.6345351 C219.655408,37.4246679 219.203036,35.2 216.401518,35.2 C214.054649,35.2 212.905503,37.0451613 212.905503,39.1946869 C212.905503,42.1631879 214.781784,43.0246679 216.734725,43.0246679 C217.659203,43.0246679 218.733207,42.859203 219.111954,42.572296 C219.262239,42.4660342 219.277419,42.3757116 219.277419,42.1783681 L219.277419,41.6637571 C219.277419,41.543833 219.233397,41.4223909 219.064896,41.4223909 C218.96167,41.4223909 218.916129,41.4527514 218.825047,41.4982922 C218.537381,41.6500949 217.810247,41.9681214 216.886528,41.9681214 C215.524858,41.9681214 214.388615,41.2402277 214.388615,39.4815939 C214.388615,39.3297913 214.478178,39.2721063 214.614801,39.2721063 L219.383681,39.2721063 C219.505123,39.2721063 219.655408,39.2402277 219.655408,38.9988615 L219.655408,38.9988615 Z M218.189753,38.0614801 C218.189753,38.228463 218.144213,38.2580645 218.00759,38.2580645 L214.56926,38.2580645 C214.417457,38.2580645 214.388615,38.1973435 214.388615,38.1070209 C214.388615,37.6060721 214.721063,36.227704 216.355977,36.227704 C217.144592,36.227704 218.189753,36.6360531 218.189753,38.0614801 L218.189753,38.0614801 Z M225.96888,40.800759 C225.96888,39.8026565 225.410247,39.2721063 224.607211,38.7711575 L223.713852,38.2117647 C223.046679,37.8018975 222.728653,37.5908918 222.728653,37.0755218 C222.728653,36.4857685 223.291082,36.2732448 223.956736,36.2732448 C224.925996,36.2732448 225.349526,36.8174573 225.591651,36.8174573 C225.772296,36.8174573 225.817837,36.7119545 225.817837,36.5753321 L225.817837,36.0318786 C225.817837,35.8497154 225.817837,35.7434535 225.666793,35.6371917 C225.364706,35.4110057 224.639089,35.2 223.896015,35.2 C222.441746,35.2 221.398861,35.8497154 221.398861,37.257685 C221.398861,38.287666 222.034915,38.7559772 222.866034,39.3024668 L223.804934,39.9074004 C224.229981,40.1814042 224.578368,40.4068311 224.578368,40.9829222 C224.578368,41.6045541 224.138899,41.9521822 223.213662,41.9521822 C222.124478,41.9521822 221.79203,41.4072106 221.474004,41.4072106 C221.293359,41.4072106 221.247818,41.5134725 221.247818,41.6500949 L221.247818,42.2087287 C221.247818,42.3901328 221.247818,42.4812144 221.398861,42.5859583 C221.77685,42.8728653 222.578368,43.0246679 223.319924,43.0246679 C224.456167,43.0246679 225.96888,42.5859583 225.96888,40.800759 L225.96888,40.800759 Z M237.687287,40.1047438 C237.687287,38.8925996 237.158254,37.8322581 235.552941,37.545351 C235.478558,37.5301708 235.446679,37.5005693 235.446679,37.4694497 C235.446679,37.4398482 235.478558,37.3943074 235.552941,37.3791271 C235.782163,37.3335863 237.082353,36.9859583 237.082353,35.259962 C237.082353,33.9263757 236.400759,33.3062619 235.58482,33.0345351 C234.932827,32.8235294 234.176091,32.8068311 233.312334,32.8068311 L231.314611,32.8068311 C231.193169,32.8068311 231.042884,32.8371917 231.042884,33.0800759 L231.042884,42.6314991 C231.042884,42.8728653 231.193169,42.9047438 231.314611,42.9047438 L233.599241,42.9047438 C234.583681,42.9047438 235.326755,42.8136622 235.750285,42.6922201 C237.323719,42.2239089 237.687287,40.8918406 237.687287,40.1047438 L237.687287,40.1047438 Z M235.569639,35.3950664 C235.569639,37.0170778 234.251233,37.1233397 233.508918,37.1233397 L232.63074,37.1233397 C232.570019,37.1233397 232.478937,37.0777989 232.478937,36.9404175 L232.478937,33.941556 C232.478937,33.7905123 232.570019,33.7601518 232.63074,33.7601518 L233.433017,33.7601518 C234.403036,33.7601518 235.569639,33.8504744 235.569639,35.3950664 L235.569639,35.3950664 Z M236.174573,39.998482 C236.174573,41.8459203 234.781025,41.9521822 233.735863,41.9521822 L232.63074,41.9521822 C232.570019,41.9521822 232.478937,41.9074004 232.478937,41.770019 L232.478937,38.2557875 C232.478937,38.1055028 232.570019,38.0736243 232.63074,38.0736243 L233.872486,38.0736243 C234.917647,38.0736243 236.174573,38.2406072 236.174573,39.998482 L236.174573,39.998482 Z M246.028843,42.6330171 L246.028843,35.5931689 C246.028843,35.3518027 245.87704,35.3206831 245.757116,35.3206831 L244.894877,35.3206831 C244.772676,35.3206831 244.62315,35.3518027 244.62315,35.5931689 L244.62315,41.0140417 C244.62315,41.4527514 244.425047,41.6333966 244.031879,41.7851992 C243.729032,41.9074004 243.303985,41.9825427 242.957116,41.9825427 C242.319545,41.9825427 241.836053,41.83074 241.531689,41.4982922 C241.273624,41.1795066 241.214421,40.7567362 241.214421,40.0455408 L241.214421,35.5931689 C241.214421,35.3518027 241.064137,35.3206831 240.941176,35.3206831 L240.079696,35.3206831 C239.959772,35.3206831 239.80797,35.3518027 239.80797,35.5931689 L239.80797,39.8330171 C239.80797,41.0740038 239.868691,41.7396584 240.367362,42.28463 C240.834915,42.8136622 241.623529,43.0246679 242.486528,43.0246679 C242.957116,43.0246679 243.57723,42.9184061 244.015939,42.7377609 C244.153321,42.6785579 244.394687,42.6011385 244.57685,42.6011385 C244.727135,42.6011385 244.727135,42.6466793 244.727135,42.7074004 C244.727135,42.8121442 244.759013,42.9047438 244.939658,42.9047438 L245.757116,42.9047438 C245.87704,42.9047438 246.028843,42.8728653 246.028843,42.6314991 L246.028843,42.6330171 L246.028843,42.6330171 Z M254.885769,42.6314991 L254.885769,38.4075901 C254.885769,37.1666034 254.808349,36.4994307 254.310436,35.9559772 C253.841366,35.426186 253.054269,35.2 252.191271,35.2 C251.721442,35.2 251.11575,35.3055028 250.676281,35.488425 C250.539658,35.5491461 250.298292,35.6235294 250.11537,35.6235294 C249.965085,35.6235294 249.965085,35.5779886 249.965085,35.5172676 C249.965085,35.4110057 249.934725,35.3206831 249.75408,35.3206831 L248.937381,35.3206831 C248.81518,35.3206831 248.663378,35.3518027 248.663378,35.5931689 L248.663378,42.6314991 C248.663378,42.8728653 248.81518,42.9047438 248.937381,42.9047438 L249.798102,42.9047438 C249.919545,42.9047438 250.071347,42.8728653 250.071347,42.6314991 L250.071347,37.2121442 C250.071347,36.7734345 250.267173,36.5927894 250.662619,36.4409867 C250.964706,36.3172676 251.373814,36.2428843 251.721442,36.2428843 C252.358254,36.2428843 252.842505,36.4083491 253.145351,36.742315 C253.401898,37.0603416 253.479317,37.485389 253.479317,38.1950664 L253.479317,42.6314991 C253.479317,42.8728653 253.630361,42.9047438 253.751044,42.9047438 L254.612524,42.9047438 C254.733966,42.9047438 254.885769,42.8728653 254.885769,42.6314991 L254.885769,42.6314991 Z M263.862619,42.6330171 L263.862619,32.5821632 C263.862619,32.3385199 263.711575,32.3089184 263.589374,32.3089184 L262.727894,32.3089184 C262.607211,32.3089184 262.456167,32.3385199 262.456167,32.5821632 L262.456167,35.426186 C262.456167,35.5468691 262.426565,35.6235294 262.320304,35.6235294 C262.182922,35.6235294 261.668311,35.2 260.593548,35.2 C258.412144,35.2 256.960152,36.6056926 256.960152,39.2113852 C256.960152,41.5726755 258.229981,43.0246679 260.456926,43.0246679 C261.609108,43.0246679 262.07666,42.6011385 262.410626,42.6011385 C262.56167,42.6011385 262.56167,42.6466793 262.56167,42.7074004 C262.56167,42.8121442 262.59203,42.9047438 262.772676,42.9047438 L263.589374,42.9047438 C263.711575,42.9047438 263.862619,42.8728653 263.862619,42.6314991 L263.862619,42.6330171 L263.862619,42.6330171 Z M262.456167,40.9814042 C262.456167,41.4656546 262.243643,41.6478178 261.818596,41.8140417 C261.546869,41.9225806 261.198482,41.9681214 260.894877,41.9681214 C259.12334,41.9681214 258.442505,40.8766603 258.442505,39.1810247 C258.442505,36.5297913 260.031879,36.2565465 260.894877,36.2565465 C261.198482,36.2565465 261.546869,36.3020873 261.818596,36.4083491 C262.243643,36.5753321 262.456167,36.7574953 262.456167,37.2425047 L262.456167,40.9814042 L262.456167,40.9814042 Z M272.763567,38.9988615 L272.763567,38.6345351 C272.763567,37.4246679 272.311195,35.2 269.509677,35.2 C267.162808,35.2 266.012903,37.0451613 266.012903,39.1946869 C266.012903,42.1631879 267.889184,43.0246679 269.842884,43.0246679 C270.766603,43.0246679 271.840607,42.859203 272.218596,42.572296 C272.370398,42.4660342 272.385579,42.3757116 272.385579,42.1783681 L272.385579,41.6637571 C272.385579,41.543833 272.341556,41.4223909 272.174573,41.4223909 C272.069829,41.4223909 272.024288,41.4527514 271.931689,41.4982922 C271.644782,41.6500949 270.918406,41.9681214 269.994687,41.9681214 C268.631499,41.9681214 267.495256,41.2402277 267.495256,39.4815939 C267.495256,39.3297913 267.586338,39.2721063 267.72296,39.2721063 L272.491841,39.2721063 C272.613283,39.2721063 272.763567,39.2402277 272.763567,38.9988615 L272.763567,38.9988615 Z M271.297154,38.0614801 C271.297154,38.228463 271.251613,38.2580645 271.11575,38.2580645 L267.677419,38.2580645 C267.525617,38.2580645 267.495256,38.1973435 267.495256,38.1070209 C267.495256,37.6060721 267.828463,36.227704 269.464137,36.227704 C270.252751,36.227704 271.297154,36.6360531 271.297154,38.0614801 L271.297154,38.0614801 Z M279.077799,40.800759 C279.077799,39.8026565 278.517647,39.2721063 277.71537,38.7711575 L276.822011,38.2117647 C276.154839,37.8018975 275.836812,37.5908918 275.836812,37.0755218 C275.836812,36.4857685 276.397723,36.2732448 277.064896,36.2732448 C278.034156,36.2732448 278.456926,36.8174573 278.69981,36.8174573 C278.880455,36.8174573 278.925996,36.7119545 278.925996,36.5753321 L278.925996,36.0318786 C278.925996,35.8497154 278.925996,35.7434535 278.774194,35.6371917 C278.472106,35.4110057 277.747249,35.2 277.004175,35.2 C275.549905,35.2 274.507021,35.8497154 274.507021,37.257685 C274.507021,38.287666 275.143074,38.7559772 275.974194,39.3024668 L276.913093,39.9074004 C277.337381,40.1814042 277.686528,40.4068311 277.686528,40.9829222 C277.686528,41.6045541 277.247059,41.9521822 276.321822,41.9521822 C275.232638,41.9521822 274.90019,41.4072106 274.581404,41.4072106 C274.400759,41.4072106 274.355218,41.5134725 274.355218,41.6500949 L274.355218,42.2087287 C274.355218,42.3901328 274.355218,42.4812144 274.507021,42.5859583 C274.885009,42.8728653 275.685769,43.0246679 276.428083,43.0246679 C277.565085,43.0246679 279.077799,42.5859583 279.077799,40.800759 L279.077799,40.800759 Z" id="Fill-4"></path>
                <path d="M25.4982922,43.0140417 L1.36091082,43.0140417 C0.699051233,43.0140417 0.699051233,41.9278937 0.699051233,41.9278937 L0.699051233,40.9563567 L26.1601518,40.9563567 L26.1601518,41.9278937 C26.1601518,43.0140417 25.4982922,43.0140417 25.4982922,43.0140417 L25.4982922,43.0140417 Z M0.699051233,38.8994307 L26.1601518,38.8994307 L26.1601518,36.8417457 L0.699051233,36.8417457 L0.699051233,38.8994307 Z M0.699051233,34.7840607 L26.1601518,34.7840607 L26.1601518,32.7263757 L0.699051233,32.7263757 L0.699051233,34.7840607 Z M26.1593928,30.6595825 L0.699051233,30.6595825 L0.699051233,2.57001898 C0.699051233,1.64402277 1.27817837,1.52789374 1.74041746,1.52789374 L23.9635674,1.52789374 C24.4273245,1.52789374 25.0049336,1.64402277 25.0049336,2.57001898 L25.0049336,7.256926 C25.0049336,8.18368121 24.4273245,8.29905123 23.9635674,8.29905123 L10.5381404,8.29905123 C10.3058824,8.29905123 9.95825427,8.41442125 9.95825427,8.99354839 L9.95825427,12.0637571 C9.95825427,12.5851992 10.3058824,12.7590133 10.5381404,12.7590133 L21.0117647,12.7590133 C21.4747628,12.7590133 22.0538899,12.8743833 22.0538899,13.7996205 L22.0538899,18.4880455 C22.0538899,19.4132827 21.4747628,19.5294118 21.0117647,19.5294118 L10.5381404,19.5294118 C10.3058824,19.5294118 9.95825427,19.6447818 9.95825427,20.2231499 L9.95825427,23.1870968 C9.95825427,23.7077799 10.3058824,23.8815939 10.5381404,23.8815939 L25.1210626,23.8815939 C25.5840607,23.8815939 26.1624288,23.9969639 26.1624288,24.9229602 L26.1593928,30.6595825 L26.1593928,30.6595825 Z" id="Fill-5"></path>
            </g>
        </g>
    </g>
</svg>
