<svg xmlns="http://www.w3.org/2000/svg" xmlns:xlink="http://www.w3.org/1999/xlink" width="100" zoomAndPan="magnify" viewBox="0 0 75 74.999997" height="100" preserveAspectRatio="xMidYMid meet" version="1.0"><defs><clipPath id="3b1498cd32"><path d="M 0 3.75 L 75 3.75 L 75 71.25 L 0 71.25 Z M 0 3.75 " clip-rule="nonzero"/></clipPath></defs><g clip-path="url(#3b1498cd32)"><path fill="#ffebeb" d="M 74.992188 36.941406 C 74.992188 36.851562 74.984375 36.757812 74.964844 36.667969 C 74.957031 36.625 74.957031 36.589844 74.949219 36.550781 C 74.925781 36.457031 74.898438 36.367188 74.867188 36.285156 C 74.851562 36.25 74.839844 36.214844 74.824219 36.183594 C 74.792969 36.089844 74.742188 36.007812 74.691406 35.933594 C 74.675781 35.898438 74.660156 35.867188 74.640625 35.839844 C 74.582031 35.765625 74.523438 35.699219 74.464844 35.632812 C 74.433594 35.601562 74.410156 35.566406 74.382812 35.542969 C 74.359375 35.515625 74.339844 35.492188 74.316406 35.476562 L 68.824219 30.640625 C 68.824219 30.632812 68.816406 30.632812 68.816406 30.632812 L 66.148438 28.285156 L 66.148438 6.667969 C 66.148438 5.515625 65.214844 4.582031 64.066406 4.582031 L 51.875 4.582031 C 50.726562 4.582031 49.792969 5.515625 49.792969 6.667969 L 49.792969 13.890625 L 38.832031 4.25 C 38.816406 4.234375 38.792969 4.214844 38.773438 4.207031 C 38.714844 4.160156 38.660156 4.117188 38.601562 4.082031 C 38.589844 4.074219 38.582031 4.066406 38.566406 4.058594 C 38.558594 4.050781 38.542969 4.042969 38.523438 4.035156 C 38.5 4.007812 38.464844 4 38.433594 3.984375 C 38.382812 3.949219 38.324219 3.925781 38.265625 3.898438 C 38.242188 3.890625 38.214844 3.882812 38.183594 3.867188 C 38.148438 3.859375 38.109375 3.839844 38.074219 3.832031 C 38.015625 3.816406 37.96875 3.808594 37.910156 3.792969 C 37.882812 3.792969 37.851562 3.785156 37.824219 3.773438 C 37.785156 3.765625 37.734375 3.765625 37.691406 3.757812 C 37.640625 3.757812 37.59375 3.75 37.542969 3.75 L 37.457031 3.75 C 37.410156 3.75 37.359375 3.757812 37.308594 3.757812 C 37.265625 3.765625 37.226562 3.765625 37.175781 3.773438 C 37.148438 3.785156 37.117188 3.792969 37.082031 3.792969 C 37.035156 3.808594 36.984375 3.816406 36.925781 3.832031 C 36.890625 3.839844 36.859375 3.859375 36.816406 3.867188 C 36.792969 3.875 36.757812 3.890625 36.734375 3.910156 C 36.675781 3.925781 36.617188 3.949219 36.566406 3.984375 C 36.535156 4 36.507812 4.007812 36.476562 4.023438 C 36.449219 4.042969 36.425781 4.066406 36.398438 4.082031 C 36.339844 4.125 36.285156 4.160156 36.226562 4.207031 C 36.207031 4.226562 36.191406 4.234375 36.167969 4.25 L 25.066406 14.015625 L 6.183594 30.632812 C 6.175781 30.632812 6.175781 30.640625 6.167969 30.648438 L 0.683594 35.476562 C 0.660156 35.492188 0.648438 35.515625 0.625 35.535156 C 0.589844 35.566406 0.558594 35.609375 0.523438 35.640625 C 0.464844 35.707031 0.417969 35.765625 0.367188 35.832031 C 0.339844 35.875 0.316406 35.917969 0.292969 35.949219 C 0.25 36.023438 0.207031 36.101562 0.175781 36.175781 C 0.160156 36.214844 0.140625 36.265625 0.125 36.308594 C 0.101562 36.382812 0.0742188 36.457031 0.0585938 36.542969 C 0.0429688 36.589844 0.0429688 36.640625 0.0351562 36.691406 C 0.015625 36.773438 0.0078125 36.851562 0.0078125 36.933594 C 0.0078125 36.949219 0 36.976562 0 36.992188 C 0 37.023438 0.0078125 37.058594 0.0078125 37.101562 C 0.015625 37.175781 0.0234375 37.25 0.0351562 37.324219 C 0.0429688 37.382812 0.0585938 37.449219 0.0742188 37.507812 C 0.0898438 37.574219 0.109375 37.632812 0.132812 37.691406 C 0.160156 37.757812 0.191406 37.824219 0.214844 37.890625 C 0.25 37.941406 0.273438 37.992188 0.300781 38.042969 C 0.339844 38.109375 0.390625 38.175781 0.441406 38.242188 C 0.464844 38.265625 0.484375 38.292969 0.5 38.316406 C 0.507812 38.332031 0.523438 38.339844 0.53125 38.351562 C 0.609375 38.425781 0.683594 38.5 0.765625 38.566406 C 0.800781 38.582031 0.824219 38.609375 0.851562 38.625 C 0.949219 38.699219 1.066406 38.765625 1.183594 38.816406 C 1.183594 38.824219 1.191406 38.824219 1.199219 38.832031 C 1.449219 38.941406 1.726562 39.007812 2.015625 39.007812 L 5.5 39.007812 L 5.5 69.234375 C 5.5 70.351562 6.398438 71.25 7.515625 71.25 L 26.042969 71.25 C 27.148438 71.25 28.058594 70.351562 28.058594 69.234375 L 28.058594 58.050781 C 28.058594 52.839844 32.292969 48.609375 37.5 48.609375 C 40.023438 48.609375 42.398438 49.589844 44.183594 51.375 C 45.957031 53.160156 46.941406 55.523438 46.941406 58.050781 L 46.941406 69.234375 C 46.941406 70.351562 47.851562 71.25 48.957031 71.25 L 67.484375 71.25 C 68.601562 71.25 69.5 70.351562 69.5 69.234375 L 69.5 39.007812 L 72.984375 39.007812 C 73.273438 39.007812 73.550781 38.941406 73.800781 38.832031 C 73.816406 38.824219 73.824219 38.816406 73.851562 38.808594 C 73.949219 38.757812 74.050781 38.699219 74.148438 38.632812 C 74.183594 38.609375 74.21875 38.574219 74.25 38.550781 C 74.324219 38.492188 74.390625 38.425781 74.457031 38.359375 C 74.476562 38.339844 74.484375 38.332031 74.5 38.316406 C 74.523438 38.292969 74.542969 38.257812 74.566406 38.226562 C 74.609375 38.167969 74.660156 38.109375 74.691406 38.050781 C 74.726562 37.992188 74.757812 37.933594 74.792969 37.875 C 74.816406 37.816406 74.84375 37.765625 74.867188 37.707031 C 74.890625 37.632812 74.910156 37.566406 74.933594 37.492188 C 74.941406 37.441406 74.957031 37.390625 74.96875 37.332031 C 74.984375 37.25 74.992188 37.167969 74.992188 37.074219 C 74.992188 37.050781 75 37.015625 75 36.992188 C 75 36.976562 75 36.957031 74.992188 36.941406 Z M 53.957031 8.75 L 61.984375 8.75 L 61.984375 24.617188 L 57.390625 20.574219 L 53.957031 17.558594 Z M 65.464844 67.214844 L 50.976562 67.214844 L 50.976562 58.050781 C 50.976562 54.449219 49.574219 51.066406 47.035156 48.523438 C 44.484375 45.984375 41.101562 44.574219 37.5 44.574219 C 30.066406 44.574219 24.023438 50.617188 24.023438 58.050781 L 24.023438 67.214844 L 9.535156 67.214844 L 9.535156 33.058594 L 28.242188 16.601562 L 37.5 8.449219 L 49.792969 19.265625 L 53.957031 22.933594 L 54.457031 23.375 L 59.625 27.917969 L 64.339844 32.066406 L 65.464844 33.058594 Z M 65.464844 67.214844 " fill-opacity="1" fill-rule="nonzero"/></g></svg>