<svg xmlns="http://www.w3.org/2000/svg" xmlns:xlink="http://www.w3.org/1999/xlink" width="270" zoomAndPan="magnify" viewBox="0 0 202.5 74.999997" height="100" preserveAspectRatio="xMidYMid meet" version="1.0"><path fill="#006098" d="M 72.007812 59.617188 C 73.503906 59.617188 74.25 59.242188 74.25 58.113281 C 74.25 57.738281 74.25 56.894531 73.503906 56.140625 C 60.144531 37.542969 60.144531 37.542969 60.144531 37.542969 C 60.144531 37.542969 59.769531 37.167969 60.144531 37.167969 C 72.757812 19.695312 72.757812 19.695312 72.757812 19.695312 C 73.128906 18.851562 73.503906 18.097656 73.503906 17.347656 C 73.503906 16.125 72.757812 15.75 70.792969 15.75 C 67.058594 15.75 67.058594 15.75 67.058594 15.75 C 65.46875 15.75 64.347656 16.125 63.226562 17.722656 C 52.578125 32.847656 52.578125 32.847656 52.578125 32.847656 C 50.988281 34.441406 50.613281 35.570312 50.613281 37.167969 C 50.613281 39.421875 50.988281 40.265625 52.578125 42.144531 C 63.601562 57.738281 63.601562 57.738281 63.601562 57.738281 C 64.347656 59.242188 65.46875 59.617188 67.429688 59.617188 M 134.511719 44.871094 C 134.511719 44.117188 134.136719 43.742188 133.765625 42.992188 C 131.429688 35.195312 131.429688 35.195312 131.429688 35.195312 C 131.054688 34.820312 130.679688 34.441406 130.308594 34.441406 C 129.558594 34.441406 129.1875 34.820312 128.8125 35.570312 C 128.8125 35.570312 126.101562 44.871094 126.101562 46.089844 C 125.355469 42.617188 118.160156 18.097656 118.160156 18.097656 C 117.320312 16.125 116.945312 15.75 115.078125 15.75 C 111.621094 15.75 111.621094 15.75 111.621094 15.75 C 109.753906 15.75 109.007812 16.597656 109.007812 17.722656 C 109.007812 18.097656 109.378906 18.851562 109.378906 19.320312 C 121.152344 56.894531 121.152344 56.894531 121.152344 56.894531 C 121.898438 59.242188 122.738281 59.617188 124.609375 59.617188 C 127.316406 59.617188 127.316406 59.617188 127.316406 59.617188 C 129.558594 59.617188 130.308594 59.242188 130.679688 56.894531 C 133.765625 47.21875 133.765625 47.21875 133.765625 47.21875 C 133.765625 47.21875 134.511719 45.714844 134.511719 44.871094 M 147.871094 59.617188 C 149.738281 59.617188 150.582031 59.242188 151.328125 56.894531 C 163.101562 19.320312 163.101562 19.320312 163.101562 19.320312 C 163.101562 18.851562 163.472656 18.097656 163.472656 17.722656 C 163.472656 16.597656 162.726562 15.75 161.230469 15.75 C 157.402344 15.75 157.402344 15.75 157.402344 15.75 C 155.53125 15.75 155.066406 16.125 154.691406 18.097656 C 154.691406 18.097656 147.496094 42.617188 146.75 46.089844 C 145.535156 42.617188 138.34375 18.097656 138.34375 18.097656 C 137.96875 16.125 137.59375 15.75 135.632812 15.75 C 131.894531 15.75 131.894531 15.75 131.894531 15.75 C 130.308594 15.75 129.558594 16.597656 129.558594 17.722656 C 129.558594 18.097656 129.933594 18.851562 129.933594 19.320312 C 141.796875 56.894531 141.796875 56.894531 141.796875 56.894531 C 142.546875 59.242188 143.292969 59.617188 145.164062 59.617188 M 99.851562 34.441406 C 102.09375 34.441406 102.839844 35.195312 102.839844 37.917969 C 102.839844 39.421875 102.839844 39.421875 102.839844 39.421875 C 102.839844 42.144531 102.09375 42.992188 99.851562 42.992188 C 94.898438 42.992188 94.898438 42.992188 94.898438 42.992188 C 92.5625 42.992188 91.816406 42.144531 91.816406 39.421875 C 91.816406 37.917969 91.816406 37.917969 91.816406 37.917969 C 91.816406 35.195312 92.5625 34.441406 94.898438 34.441406 M 85.367188 59.617188 C 87.984375 59.617188 88.730469 58.867188 88.730469 56.519531 C 88.730469 28.242188 88.730469 28.242188 88.730469 28.242188 C 88.730469 26.269531 90.320312 24.675781 92.1875 24.675781 C 102.464844 24.675781 102.464844 24.675781 102.464844 24.675781 C 104.800781 24.675781 105.550781 23.921875 105.550781 21.199219 C 105.550781 19.320312 105.550781 19.320312 105.550781 19.320312 C 105.550781 16.597656 104.800781 15.75 102.464844 15.75 C 89.480469 15.75 89.480469 15.75 89.480469 15.75 C 83.78125 15.75 79.578125 19.695312 79.578125 27.023438 C 79.578125 56.519531 79.578125 56.519531 79.578125 56.519531 C 79.578125 58.867188 80.324219 59.617188 83.035156 59.617188 M 44.542969 59.617188 C 47.15625 59.617188 48 58.867188 48 56.519531 C 48 18.851562 48 18.851562 48 18.851562 C 48 16.597656 47.15625 15.75 44.542969 15.75 C 42.207031 15.75 42.207031 15.75 42.207031 15.75 C 39.589844 15.75 38.84375 16.597656 38.84375 18.851562 C 38.84375 56.519531 38.84375 56.519531 38.84375 56.519531 C 38.84375 58.867188 39.589844 59.617188 42.207031 59.617188 " fill-opacity="1" fill-rule="nonzero"/></svg>