<svg xmlns="http://www.w3.org/2000/svg" xmlns:xlink="http://www.w3.org/1999/xlink" width="100" zoomAndPan="magnify" viewBox="0 0 75 74.999997" height="100" preserveAspectRatio="xMidYMid meet" version="1.0"><path fill="#ffebeb" d="M 74.160156 9.710938 L 65.574219 1.125 C 65.035156 0.589844 64.308594 0.285156 63.550781 0.285156 L 17.75 0.285156 C 16.167969 0.285156 14.886719 1.566406 14.886719 3.148438 L 14.886719 14.5625 C 13.660156 14.988281 12.492188 15.648438 11.460938 16.597656 C 9.074219 16.699219 6.945312 17.570312 5.355469 19.113281 C 3.699219 20.71875 2.742188 22.949219 2.59375 25.5 C 0.898438 27.402344 -0.00390625 29.660156 0.03125 31.960938 C 0.0625 34.175781 0.957031 36.300781 2.570312 38.0625 C 2.671875 40.449219 3.542969 42.578125 5.085938 44.167969 C 5.453125 44.550781 5.867188 44.882812 6.296875 45.1875 L 6.296875 63.261719 C 6.296875 64.320312 6.878906 65.289062 7.808594 65.789062 C 8.734375 66.285156 9.867188 66.230469 10.75 65.644531 L 14.886719 62.886719 L 14.886719 71.851562 C 14.886719 73.433594 16.167969 74.714844 17.75 74.714844 L 72.136719 74.714844 C 73.71875 74.714844 75 73.433594 75 71.851562 L 75 11.738281 C 75 10.976562 74.699219 10.25 74.160156 9.710938 Z M 63.550781 7.195312 L 68.089844 11.738281 L 63.550781 11.738281 Z M 9.195312 40.183594 C 8.324219 39.285156 8.230469 38.011719 8.304688 37.097656 C 8.378906 36.179688 8.007812 35.285156 7.308594 34.6875 C 6.609375 34.09375 5.773438 33.125 5.753906 31.875 C 5.738281 30.835938 6.296875 29.773438 7.371094 28.804688 C 8.007812 28.230469 8.351562 27.398438 8.308594 26.539062 C 8.238281 25.09375 8.59375 23.945312 9.339844 23.222656 C 10.238281 22.355469 11.515625 22.269531 12.425781 22.332031 C 13.367188 22.425781 14.238281 22.035156 14.832031 21.332031 C 15.429688 20.636719 16.398438 19.800781 17.644531 19.78125 C 18.683594 19.71875 19.746094 20.324219 20.71875 21.398438 C 21.292969 22.035156 22.117188 22.386719 22.984375 22.335938 C 24.421875 22.269531 25.578125 22.621094 26.300781 23.367188 C 27.171875 24.261719 27.265625 25.539062 27.191406 26.453125 C 27.117188 27.367188 27.488281 28.265625 28.1875 28.859375 C 28.886719 29.453125 29.722656 30.425781 29.742188 31.671875 C 29.757812 32.710938 29.199219 33.773438 28.125 34.746094 C 27.488281 35.320312 27.144531 36.152344 27.1875 37.011719 C 27.257812 38.457031 26.902344 39.605469 26.15625 40.328125 C 25.261719 41.199219 23.984375 41.289062 23.070312 41.21875 C 22.148438 41.144531 21.257812 41.515625 20.664062 42.214844 C 20.066406 42.914062 19.097656 43.75 17.851562 43.765625 C 16.808594 43.742188 15.746094 43.222656 14.777344 42.152344 C 14.210938 41.523438 13.359375 41.164062 12.511719 41.214844 C 11.066406 41.273438 9.917969 40.929688 9.195312 40.183594 Z M 16.160156 55.15625 L 12.023438 57.914062 L 12.023438 47.34375 C 13.722656 48.683594 15.757812 49.492188 17.933594 49.492188 C 19.925781 49.460938 21.828125 48.707031 23.472656 47.386719 L 23.472656 57.914062 L 19.335938 55.15625 C 18.375 54.515625 17.121094 54.515625 16.160156 55.15625 Z M 69.273438 68.988281 L 20.609375 68.988281 L 20.609375 62.886719 L 24.746094 65.644531 C 25.617188 66.226562 26.765625 66.28125 27.6875 65.789062 C 28.617188 65.289062 29.199219 64.320312 29.199219 63.261719 L 29.199219 45.191406 C 29.523438 44.953125 29.851562 44.71875 30.140625 44.4375 C 31.796875 42.832031 32.753906 40.597656 32.902344 38.050781 C 34.597656 36.148438 35.5 33.890625 35.464844 31.585938 C 35.433594 29.375 34.539062 27.25 32.925781 25.488281 C 32.824219 23.101562 31.953125 20.96875 30.410156 19.382812 C 28.804688 17.726562 26.570312 16.769531 24.023438 16.621094 C 22.984375 15.695312 21.816406 15.054688 20.609375 14.632812 L 20.609375 6.011719 L 57.824219 6.011719 L 57.824219 14.597656 C 57.824219 16.179688 59.105469 17.460938 60.6875 17.460938 L 69.273438 17.460938 Z M 60.6875 23.1875 C 64.375 23.1875 64.371094 28.914062 60.6875 28.914062 L 43.511719 28.914062 C 39.820312 28.914062 39.828125 23.1875 43.511719 23.1875 Z M 60.6875 43.226562 L 43.511719 43.226562 C 39.820312 43.226562 39.828125 37.5 43.511719 37.5 L 60.6875 37.5 C 64.375 37.5 64.371094 43.226562 60.6875 43.226562 Z M 60.6875 57.539062 L 43.511719 57.539062 C 39.820312 57.539062 39.828125 51.8125 43.511719 51.8125 L 60.6875 51.8125 C 64.375 51.8125 64.371094 57.539062 60.6875 57.539062 Z M 60.6875 57.539062 " fill-opacity="1" fill-rule="nonzero"/></svg>