<svg xmlns="http://www.w3.org/2000/svg" xmlns:xlink="http://www.w3.org/1999/xlink" width="100" zoomAndPan="magnify" viewBox="0 0 75 74.999997" height="100" preserveAspectRatio="xMidYMid meet" version="1.0"><defs><clipPath id="657588bc67"><path d="M 0.5625 0 L 74.8125 0 L 74.8125 75 L 0.5625 75 Z M 0.5625 0 " clip-rule="nonzero"/></clipPath></defs><g clip-path="url(#657588bc67)"><path fill="#ffebeb" d="M 7.480469 25.949219 L 68.019531 25.949219 L 71.535156 67.214844 C 71.652344 68.640625 71.285156 69.835938 70.625 70.640625 C 69.96875 71.449219 69.046875 71.933594 67.6875 71.933594 L 7.808594 71.933594 C 6.453125 71.933594 5.53125 71.449219 4.871094 70.640625 C 4.210938 69.835938 3.839844 68.640625 3.960938 67.214844 Z M 48.898438 3.234375 C 49.492188 3.203125 50.09375 3.347656 50.691406 3.671875 C 51.964844 4.351562 53.035156 5.9375 53.417969 7.898438 L 50.34375 7.898438 C 48.179688 7.796875 48.179688 11.085938 50.34375 10.976562 L 62.203125 10.976562 C 63.722656 10.976562 64.890625 11.355469 65.679688 11.976562 C 66.457031 12.589844 66.953125 13.441406 67.074219 14.863281 L 67.757812 22.871094 L 7.742188 22.871094 L 8.425781 14.863281 C 8.542969 13.441406 9.039062 12.589844 9.820312 11.976562 C 10.601562 11.355469 11.777344 10.976562 13.296875 10.976562 L 18.941406 10.976562 C 19.03125 11.613281 19.15625 12.242188 19.355469 12.859375 C 20.433594 16.226562 23.140625 18.6875 26.367188 18.6875 C 28.535156 18.792969 28.535156 15.507812 26.367188 15.609375 C 24.746094 15.609375 23.074219 14.324219 22.300781 11.921875 C 21.527344 9.523438 22.007812 6.65625 23.355469 4.925781 C 24.195312 3.84375 25.152344 3.289062 26.140625 3.234375 C 26.730469 3.207031 27.335938 3.351562 27.933594 3.671875 C 29.207031 4.351562 30.273438 5.941406 30.660156 7.902344 L 25.609375 7.902344 C 23.542969 7.902344 23.519531 10.976562 25.617188 10.976562 L 41.699219 10.976562 C 41.789062 11.613281 41.914062 12.242188 42.113281 12.863281 C 43.191406 16.230469 45.898438 18.691406 49.132812 18.691406 C 51.292969 18.792969 51.292969 15.507812 49.132812 15.609375 C 47.503906 15.609375 45.832031 14.324219 45.058594 11.921875 C 44.285156 9.527344 44.765625 6.65625 46.113281 4.929688 C 46.953125 3.839844 47.910156 3.289062 48.898438 3.234375 Z M 26.855469 0.226562 C 26.570312 0.207031 26.273438 0.207031 25.988281 0.226562 C 25.605469 0.253906 25.226562 0.316406 24.847656 0.414062 C 23.351562 0.789062 21.941406 1.699219 20.898438 3.039062 C 19.8125 4.4375 19.160156 6.128906 18.921875 7.898438 L 13.296875 7.898438 C 11.261719 7.898438 9.363281 8.40625 7.90625 9.554688 C 6.441406 10.707031 5.515625 12.496094 5.332031 14.605469 L 0.871094 66.957031 C 0.6875 69.0625 1.238281 71.066406 2.460938 72.570312 C 3.6875 74.078125 5.613281 75.019531 7.808594 75.019531 L 67.6875 75.019531 C 69.882812 75.019531 71.808594 74.078125 73.035156 72.570312 C 74.261719 71.066406 74.796875 69.0625 74.621094 66.957031 L 70.15625 14.605469 C 69.980469 12.496094 69.054688 10.707031 67.589844 9.554688 C 66.132812 8.410156 64.238281 7.898438 62.203125 7.898438 L 56.5625 7.898438 C 56.164062 4.90625 54.625 2.269531 52.15625 0.953125 C 50.710938 0.183594 49.105469 0.03125 47.609375 0.414062 C 46.109375 0.789062 44.699219 1.699219 43.664062 3.039062 C 42.578125 4.4375 41.921875 6.128906 41.675781 7.898438 L 33.804688 7.898438 C 33.402344 4.90625 31.867188 2.269531 29.398438 0.953125 C 28.582031 0.523438 27.71875 0.28125 26.855469 0.226562 Z M 26.855469 0.226562 " fill-opacity="1" fill-rule="evenodd"/></g><path fill="#ffebeb" d="M 34.074219 49.964844 L 39.785156 49.964844 L 37.9375 62.554688 L 31.964844 62.554688 L 34.769531 61.226562 C 35.792969 60.742188 36.523438 59.84375 36.769531 58.886719 C 37.019531 57.925781 36.84375 56.960938 36.40625 56.144531 C 35.859375 55.113281 34.761719 54.300781 33.46875 54.050781 Z M 18.90625 48.222656 C 21.691406 48.222656 23.863281 50.351562 23.863281 53.015625 L 23.863281 53.425781 L 22.390625 51.316406 C 21.984375 50.707031 21.199219 50.464844 20.507812 50.738281 C 19.582031 51.101562 19.242188 52.226562 19.820312 53.03125 L 23.191406 57.878906 C 24.148438 59.246094 25.203125 59.800781 26.824219 59.179688 L 32.175781 57.117188 C 33.761719 56.507812 34.148438 58.113281 33.402344 58.464844 L 25.367188 62.269531 C 24.628906 62.613281 23.363281 62.246094 22.820312 61.5 L 18.753906 55.980469 C 17.527344 54.324219 15.003906 56.113281 16.230469 57.765625 L 19.753906 62.554688 L 13.957031 62.554688 L 13.957031 53.011719 C 13.957031 50.351562 16.125 48.222656 18.90625 48.222656 Z M 18.90625 34.542969 C 21.476562 34.542969 23.507812 36.558594 23.507812 39.058594 C 23.507812 41.5625 21.476562 43.578125 18.90625 43.578125 C 16.339844 43.578125 14.308594 41.5625 14.308594 39.058594 C 14.308594 36.558594 16.339844 34.542969 18.90625 34.542969 Z M 18.90625 31.457031 C 14.6875 31.457031 11.207031 34.871094 11.207031 39.058594 C 11.207031 42.054688 12.984375 44.636719 15.539062 45.867188 C 12.789062 47.117188 10.859375 49.84375 10.859375 53.015625 L 10.859375 64.097656 C 10.859375 64.945312 11.550781 65.636719 12.414062 65.628906 L 39.269531 65.628906 C 40.042969 65.636719 40.695312 65.078125 40.804688 64.320312 L 43.113281 48.644531 C 43.25 47.71875 42.527344 46.890625 41.585938 46.882812 L 32.730469 46.882812 C 31.964844 46.886719 31.316406 47.445312 31.199219 48.195312 L 30.261719 54.566406 L 26.921875 55.851562 C 26.945312 55.726562 26.957031 55.597656 26.953125 55.46875 L 26.953125 53.011719 C 26.953125 49.839844 25.023438 47.117188 22.269531 45.867188 C 24.824219 44.636719 26.597656 42.050781 26.597656 39.058594 C 26.597656 34.871094 23.128906 31.457031 18.90625 31.457031 Z M 18.90625 31.457031 " fill-opacity="1" fill-rule="evenodd"/><path fill="#ffebeb" d="M 56.582031 48.222656 C 59.367188 48.222656 61.53125 50.351562 61.53125 53.015625 L 61.53125 61.75 C 61.53125 62.574219 60.898438 63.210938 60.019531 63.210938 L 47.828125 63.210938 C 46.589844 63.210938 46.742188 61.511719 47.972656 61.402344 L 56.191406 60.65625 C 57.136719 60.574219 58.054688 60.191406 58.59375 59.460938 C 59.128906 58.734375 59.171875 57.976562 59.171875 57.417969 L 59.171875 52.660156 C 59.191406 51.789062 58.476562 51.085938 57.597656 51.097656 C 56.746094 51.109375 56.058594 51.804688 56.070312 52.660156 L 56.070312 57.566406 L 51.628906 57.976562 L 51.628906 53.011719 C 51.628906 50.351562 53.792969 48.222656 56.582031 48.222656 Z M 56.582031 34.542969 C 59.148438 34.542969 61.175781 36.558594 61.175781 39.058594 C 61.175781 41.5625 59.148438 43.578125 56.582031 43.578125 C 54.015625 43.578125 51.984375 41.5625 51.984375 39.058594 C 51.984375 36.558594 54.015625 34.542969 56.582031 34.542969 Z M 56.582031 31.457031 C 52.355469 31.457031 48.878906 34.871094 48.878906 39.058594 C 48.878906 42.054688 50.660156 44.636719 53.214844 45.875 C 50.464844 47.125 48.535156 49.84375 48.535156 53.015625 L 48.535156 58.253906 L 47.691406 58.335938 C 45.339844 58.546875 43.855469 60.558594 43.878906 62.433594 C 43.894531 63.375 44.214844 64.328125 44.90625 65.070312 C 45.59375 65.816406 46.660156 66.285156 47.828125 66.285156 L 60.019531 66.285156 C 62.535156 66.285156 64.625 64.246094 64.625 61.75 L 64.625 53.074219 C 64.625 52.910156 64.613281 52.734375 64.601562 52.59375 C 64.445312 49.605469 62.566406 47.070312 59.945312 45.875 C 62.5 44.636719 64.28125 42.054688 64.28125 39.058594 C 64.28125 34.871094 60.804688 31.457031 56.582031 31.457031 Z M 56.582031 31.457031 " fill-opacity="1" fill-rule="evenodd"/></svg>