<svg xmlns="http://www.w3.org/2000/svg" xmlns:xlink="http://www.w3.org/1999/xlink" width="500" zoomAndPan="magnify" viewBox="0 0 375 374.999991" height="500" preserveAspectRatio="xMidYMid meet" version="1.0"><path fill="#e63946" d="M 253.269531 0 L 121.730469 0 C 119.804688 -0.0195312 117.894531 0.148438 116 0.511719 C 114.105469 0.875 112.269531 1.421875 110.484375 2.152344 C 108.699219 2.882812 107.007812 3.785156 105.40625 4.851562 C 103.800781 5.921875 102.320312 7.140625 100.960938 8.507812 L 8.507812 100.960938 C 7.140625 102.320312 5.921875 103.800781 4.855469 105.40625 C 3.785156 107.007812 2.882812 108.699219 2.152344 110.484375 C 1.421875 112.269531 0.875 114.105469 0.511719 116 C 0.148438 117.894531 -0.0195312 119.804688 0 121.730469 L 0 253.269531 C -0.0195312 255.195312 0.148438 257.105469 0.511719 259 C 0.875 260.894531 1.421875 262.730469 2.152344 264.515625 C 2.882812 266.300781 3.785156 267.992188 4.855469 269.59375 C 5.921875 271.199219 7.140625 272.679688 8.507812 274.039062 L 100.960938 366.492188 C 102.292969 367.832031 103.746094 369.03125 105.316406 370.085938 C 106.882812 371.140625 108.539062 372.035156 110.285156 372.765625 C 112.03125 373.496094 113.828125 374.046875 115.679688 374.421875 C 117.535156 374.800781 119.40625 374.992188 121.296875 375 L 252.835938 375 C 254.800781 375.050781 256.75 374.902344 258.683594 374.554688 C 260.613281 374.203125 262.492188 373.664062 264.316406 372.933594 C 266.140625 372.203125 267.867188 371.292969 269.507812 370.207031 C 271.144531 369.125 272.65625 367.882812 274.039062 366.492188 L 366.492188 274.039062 C 367.859375 272.679688 369.078125 271.199219 370.144531 269.59375 C 371.214844 267.992188 372.117188 266.300781 372.847656 264.515625 C 373.578125 262.730469 374.125 260.894531 374.488281 259 C 374.851562 257.105469 375.019531 255.195312 375 253.269531 L 375 121.730469 C 375.019531 119.804688 374.851562 117.894531 374.488281 116 C 374.125 114.105469 373.578125 112.269531 372.847656 110.484375 C 372.117188 108.699219 371.214844 107.007812 370.148438 105.40625 C 369.078125 103.800781 367.859375 102.320312 366.492188 100.960938 L 274.039062 8.507812 C 272.679688 7.140625 271.199219 5.921875 269.59375 4.851562 C 267.992188 3.785156 266.300781 2.882812 264.515625 2.152344 C 262.730469 1.421875 260.894531 0.875 259 0.511719 C 257.105469 0.148438 255.195312 -0.0195312 253.269531 0 Z M 253.269531 0 " fill-opacity="1" fill-rule="nonzero"/><path fill="#edebea" d="M 216.347656 288.460938 C 216.347656 289.40625 216.300781 290.347656 216.207031 291.289062 C 216.113281 292.230469 215.976562 293.164062 215.792969 294.089844 C 215.609375 295.015625 215.378906 295.929688 215.105469 296.835938 C 214.828125 297.738281 214.511719 298.628906 214.148438 299.5 C 213.789062 300.375 213.386719 301.226562 212.941406 302.058594 C 212.496094 302.894531 212.007812 303.703125 211.484375 304.488281 C 210.960938 305.273438 210.398438 306.03125 209.796875 306.761719 C 209.199219 307.492188 208.566406 308.191406 207.898438 308.859375 C 207.230469 309.527344 206.53125 310.160156 205.800781 310.761719 C 205.070312 311.359375 204.3125 311.921875 203.527344 312.445312 C 202.742188 312.972656 201.929688 313.457031 201.097656 313.902344 C 200.265625 314.347656 199.410156 314.75 198.539062 315.113281 C 197.667969 315.472656 196.777344 315.792969 195.875 316.066406 C 194.96875 316.339844 194.054688 316.570312 193.128906 316.753906 C 192.199219 316.9375 191.269531 317.078125 190.328125 317.167969 C 189.386719 317.261719 188.445312 317.308594 187.5 317.308594 C 186.554688 317.308594 185.613281 317.261719 184.671875 317.167969 C 183.730469 317.078125 182.800781 316.9375 181.871094 316.753906 C 180.945312 316.570312 180.03125 316.339844 179.125 316.066406 C 178.222656 315.792969 177.332031 315.472656 176.460938 315.113281 C 175.589844 314.75 174.734375 314.347656 173.902344 313.902344 C 173.070312 313.457031 172.257812 312.972656 171.472656 312.445312 C 170.6875 311.921875 169.929688 311.359375 169.199219 310.761719 C 168.46875 310.160156 167.769531 309.527344 167.101562 308.859375 C 166.433594 308.191406 165.800781 307.492188 165.203125 306.761719 C 164.601562 306.03125 164.039062 305.273438 163.515625 304.488281 C 162.992188 303.703125 162.503906 302.894531 162.058594 302.058594 C 161.613281 301.226562 161.210938 300.375 160.847656 299.5 C 160.488281 298.628906 160.171875 297.738281 159.894531 296.835938 C 159.621094 295.929688 159.390625 295.015625 159.207031 294.089844 C 159.023438 293.164062 158.886719 292.230469 158.792969 291.289062 C 158.699219 290.347656 158.652344 289.40625 158.652344 288.460938 C 158.652344 287.515625 158.699219 286.574219 158.792969 285.632812 C 158.886719 284.695312 159.023438 283.761719 159.207031 282.832031 C 159.390625 281.90625 159.621094 280.992188 159.894531 280.089844 C 160.171875 279.183594 160.488281 278.296875 160.847656 277.421875 C 161.210938 276.550781 161.613281 275.695312 162.058594 274.863281 C 162.503906 274.03125 162.992188 273.222656 163.515625 272.433594 C 164.039062 271.648438 164.601562 270.890625 165.203125 270.160156 C 165.800781 269.429688 166.433594 268.730469 167.101562 268.0625 C 167.769531 267.394531 168.46875 266.761719 169.199219 266.164062 C 169.929688 265.5625 170.6875 265 171.472656 264.476562 C 172.257812 263.953125 173.070312 263.46875 173.902344 263.019531 C 174.734375 262.574219 175.589844 262.171875 176.460938 261.8125 C 177.332031 261.449219 178.222656 261.132812 179.125 260.859375 C 180.03125 260.582031 180.945312 260.355469 181.871094 260.167969 C 182.800781 259.984375 183.730469 259.847656 184.671875 259.753906 C 185.613281 259.660156 186.554688 259.617188 187.5 259.617188 C 188.445312 259.617188 189.386719 259.660156 190.328125 259.753906 C 191.269531 259.847656 192.199219 259.984375 193.128906 260.167969 C 194.054688 260.355469 194.96875 260.582031 195.875 260.859375 C 196.777344 261.132812 197.667969 261.449219 198.539062 261.8125 C 199.410156 262.171875 200.265625 262.574219 201.097656 263.019531 C 201.929688 263.46875 202.742188 263.953125 203.527344 264.476562 C 204.3125 265 205.070312 265.5625 205.800781 266.164062 C 206.53125 266.761719 207.230469 267.394531 207.898438 268.0625 C 208.566406 268.730469 209.199219 269.429688 209.796875 270.160156 C 210.398438 270.890625 210.960938 271.648438 211.484375 272.433594 C 212.007812 273.222656 212.496094 274.03125 212.941406 274.863281 C 213.386719 275.695312 213.789062 276.550781 214.148438 277.421875 C 214.511719 278.296875 214.828125 279.183594 215.105469 280.089844 C 215.378906 280.992188 215.609375 281.90625 215.792969 282.832031 C 215.976562 283.761719 216.113281 284.695312 216.207031 285.632812 C 216.300781 286.574219 216.347656 287.515625 216.347656 288.460938 Z M 216.347656 288.460938 " fill-opacity="1" fill-rule="nonzero"/><path fill="#edebea" d="M 203.367188 201.921875 L 171.632812 201.921875 C 170.746094 201.925781 169.863281 201.851562 168.988281 201.691406 C 168.113281 201.53125 167.261719 201.296875 166.429688 200.980469 C 165.597656 200.664062 164.804688 200.273438 164.042969 199.808594 C 163.285156 199.34375 162.574219 198.816406 161.914062 198.222656 C 161.253906 197.625 160.652344 196.976562 160.109375 196.269531 C 159.570312 195.5625 159.097656 194.8125 158.695312 194.019531 C 158.296875 193.226562 157.96875 192.402344 157.71875 191.550781 C 157.46875 190.695312 157.300781 189.828125 157.210938 188.941406 L 145.671875 73.558594 C 145.621094 73.054688 145.597656 72.554688 145.601562 72.050781 C 145.601562 71.546875 145.632812 71.042969 145.6875 70.542969 C 145.742188 70.039062 145.824219 69.542969 145.929688 69.050781 C 146.035156 68.558594 146.167969 68.074219 146.328125 67.59375 C 146.484375 67.117188 146.667969 66.648438 146.875 66.1875 C 147.082031 65.726562 147.3125 65.28125 147.566406 64.84375 C 147.820312 64.410156 148.097656 63.988281 148.394531 63.582031 C 148.695312 63.175781 149.011719 62.785156 149.351562 62.414062 C 149.691406 62.039062 150.046875 61.6875 150.425781 61.351562 C 150.800781 61.015625 151.195312 60.699219 151.601562 60.40625 C 152.011719 60.113281 152.433594 59.839844 152.875 59.589844 C 153.3125 59.339844 153.761719 59.113281 154.222656 58.910156 C 154.683594 58.707031 155.15625 58.53125 155.632812 58.375 C 156.113281 58.222656 156.601562 58.09375 157.09375 57.992188 C 157.589844 57.890625 158.085938 57.8125 158.585938 57.765625 C 159.089844 57.714844 159.59375 57.691406 160.097656 57.691406 L 214.902344 57.691406 C 215.40625 57.691406 215.910156 57.714844 216.414062 57.765625 C 216.914062 57.8125 217.410156 57.890625 217.90625 57.992188 C 218.398438 58.09375 218.886719 58.222656 219.367188 58.375 C 219.84375 58.53125 220.316406 58.707031 220.777344 58.910156 C 221.238281 59.113281 221.6875 59.339844 222.125 59.589844 C 222.566406 59.839844 222.988281 60.113281 223.398438 60.40625 C 223.804688 60.699219 224.199219 61.015625 224.574219 61.351562 C 224.953125 61.6875 225.308594 62.039062 225.648438 62.414062 C 225.988281 62.785156 226.304688 63.175781 226.605469 63.582031 C 226.902344 63.988281 227.179688 64.410156 227.433594 64.84375 C 227.6875 65.28125 227.917969 65.726562 228.125 66.1875 C 228.332031 66.648438 228.515625 67.117188 228.671875 67.59375 C 228.832031 68.074219 228.964844 68.558594 229.070312 69.050781 C 229.175781 69.542969 229.257812 70.039062 229.3125 70.542969 C 229.367188 71.042969 229.398438 71.546875 229.398438 72.050781 C 229.402344 72.554688 229.378906 73.054688 229.328125 73.558594 L 217.789062 188.941406 C 217.699219 189.828125 217.53125 190.695312 217.28125 191.550781 C 217.03125 192.402344 216.703125 193.226562 216.304688 194.019531 C 215.902344 194.8125 215.429688 195.5625 214.890625 196.269531 C 214.347656 196.976562 213.746094 197.625 213.085938 198.222656 C 212.425781 198.816406 211.714844 199.34375 210.957031 199.808594 C 210.199219 200.273438 209.402344 200.664062 208.570312 200.980469 C 207.738281 201.296875 206.886719 201.53125 206.011719 201.691406 C 205.136719 201.851562 204.253906 201.925781 203.367188 201.921875 Z M 203.367188 201.921875 " fill-opacity="1" fill-rule="nonzero"/></svg>